<svg width="451" height="135" viewBox="0 0 451 135" fill="none" xmlns="http://www.w3.org/2000/svg">
<g opacity="0.3">
<mask id="mask0_13_27864" style="mask-type:luminance" maskUnits="userSpaceOnUse" x="0" y="0" width="153" height="135">
<path d="M152.679 0H0V134.754H152.679V0Z" fill="white"/>
</mask>
<g mask="url(#mask0_13_27864)">
<path d="M10.2603 12.2447C-3.42011 15.4844 -3.42011 7.02061 10.2603 10.2603C7.02061 -3.42011 15.4844 -3.42011 12.2447 10.2603C25.9251 7.02061 25.9251 15.4844 12.2447 12.2447C15.4844 25.9251 7.02061 25.9251 10.2603 12.2447Z" fill="#FFD484"/>
<path d="M47.4544 12.2447C33.774 15.4844 33.774 7.02061 47.4544 10.2603C44.2147 -3.42011 52.6785 -3.42011 49.4388 10.2603C63.1192 7.02061 63.1192 15.4844 49.4388 12.2447C52.6785 25.9251 44.2147 25.9251 47.4544 12.2447Z" fill="#FFD484"/>
<path d="M37.1942 11.2543C37.1942 7.19725 33.9066 3.90967 29.8496 3.90967C25.7926 3.90967 22.505 7.19725 22.505 11.2543C22.505 15.3113 25.7926 18.5988 29.8496 18.5988C33.9066 18.5988 37.1942 15.3113 37.1942 11.2543ZM26.146 11.2543C28.0677 10.2713 28.8666 9.47241 29.8496 7.55067C30.8362 9.47241 31.6314 10.2713 33.5532 11.2543C31.6314 12.2409 30.8326 13.0361 29.8496 14.9578C28.8666 13.0361 28.0677 12.2372 26.146 11.2543Z" fill="#FFD484"/>
<path d="M74.3846 11.2543C74.3846 7.19725 71.097 3.90967 67.04 3.90967C62.983 3.90967 59.6954 7.19725 59.6954 11.2543C59.6954 15.3113 62.983 18.5988 67.04 18.5988C71.097 18.5988 74.3846 15.3113 74.3846 11.2543ZM63.3401 11.2543C65.2619 10.2713 66.0607 9.47241 67.0437 7.55067C68.0303 9.47241 68.8255 10.2713 70.7473 11.2543C68.8255 12.2409 68.0266 13.0361 67.0437 14.9578C66.0607 13.0361 65.2619 12.2372 63.3401 11.2543Z" fill="#FFD484"/>
<path d="M84.645 12.2447C70.9645 15.4844 70.9645 7.02061 84.645 10.2603C81.4053 -3.42011 89.869 -3.42011 86.6293 10.2603C100.31 7.02061 100.31 15.4844 86.6293 12.2447C89.869 25.9251 81.4053 25.9251 84.645 12.2447Z" fill="#FFD484"/>
<path d="M111.579 11.2543C111.579 7.19725 108.291 3.90967 104.234 3.90967C100.177 3.90967 96.8896 7.19725 96.8896 11.2543C96.8896 15.3113 100.177 18.5988 104.234 18.5988C108.291 18.5988 111.579 15.3113 111.579 11.2543ZM100.531 11.2543C102.452 10.2713 103.251 9.47241 104.234 7.55067C105.221 9.47241 106.016 10.2713 107.938 11.2543C106.016 12.2409 105.217 13.0361 104.234 14.9578C103.251 13.0361 102.452 12.2372 100.531 11.2543Z" fill="#FFD484"/>
<path d="M10.2603 87.012C-3.42011 90.2517 -3.42011 81.7879 10.2603 85.0277C7.02061 71.3472 15.4844 71.3472 12.2447 85.0277C25.9251 81.7879 25.9251 90.2517 12.2447 87.012C15.4844 100.692 7.02061 100.692 10.2603 87.012Z" fill="#FFD484"/>
<path d="M47.4544 87.012C33.774 90.2517 33.774 81.7879 47.4544 85.0277C44.2147 71.3472 52.6785 71.3472 49.4388 85.0277C63.1192 81.7879 63.1192 90.2517 49.4388 87.012C52.6785 100.692 44.2147 100.692 47.4544 87.012Z" fill="#FFD484"/>
<path d="M37.1942 86.0182C37.1942 81.9612 33.9066 78.6736 29.8496 78.6736C25.7926 78.6736 22.505 81.9612 22.505 86.0182C22.505 90.0752 25.7926 93.3627 29.8496 93.3627C33.9066 93.3627 37.1942 90.0752 37.1942 86.0182ZM26.146 86.0182C28.0677 85.0352 28.8666 84.2363 29.8496 82.3146C30.8362 84.2363 31.6314 85.0352 33.5532 86.0182C31.6314 87.0048 30.8326 87.8 29.8496 89.7218C28.8666 87.8 28.0677 87.0011 26.146 86.0182Z" fill="#FFD484"/>
<path d="M74.3846 86.0182C74.3846 81.9612 71.097 78.6736 67.04 78.6736C62.983 78.6736 59.6954 81.9612 59.6954 86.0182C59.6954 90.0752 62.983 93.3627 67.04 93.3627C71.097 93.3627 74.3846 90.0752 74.3846 86.0182ZM63.3401 86.0182C65.2619 85.0352 66.0607 84.2363 67.0437 82.3146C68.0303 84.2363 68.8255 85.0352 70.7473 86.0182C68.8255 87.0048 68.0266 87.8 67.0437 89.7218C66.0607 87.8 65.2619 87.0011 63.3401 86.0182Z" fill="#FFD484"/>
<path d="M84.645 87.012C70.9645 90.2517 70.9645 81.7879 84.645 85.0277C81.4053 71.3472 89.869 71.3472 86.6293 85.0277C100.31 81.7879 100.31 90.2517 86.6293 87.012C89.869 100.692 81.4053 100.692 84.645 87.012Z" fill="#FFD484"/>
<path d="M111.579 86.0182C111.579 81.9612 108.291 78.6736 104.234 78.6736C100.177 78.6736 96.8896 81.9612 96.8896 86.0182C96.8896 90.0752 100.177 93.3627 104.234 93.3627C108.291 93.3627 111.579 90.0752 111.579 86.0182ZM100.531 86.0182C102.452 85.0352 103.251 84.2363 104.234 82.3146C105.221 84.2363 106.016 85.0352 107.938 86.0182C106.016 87.0048 105.217 87.8 104.234 89.7218C103.251 87.8 102.452 87.0011 100.531 86.0182Z" fill="#FFD484"/>
<path d="M10.2603 49.4832C-3.42011 52.7229 -3.42011 44.2591 10.2603 47.4989C7.02061 33.8184 15.4844 33.8184 12.2447 47.4989C25.9251 44.2591 25.9251 52.7229 12.2447 49.4832C15.4844 63.1636 7.02061 63.1636 10.2603 49.4832Z" fill="#FFD484"/>
<path d="M47.4544 49.4832C33.774 52.7229 33.774 44.2591 47.4544 47.4989C44.2147 33.8184 52.6785 33.8184 49.4388 47.4989C63.1192 44.2591 63.1192 52.7229 49.4388 49.4832C52.6785 63.1636 44.2147 63.1636 47.4544 49.4832Z" fill="#FFD484"/>
<path d="M37.1942 48.4891C37.1942 44.4321 33.9066 41.1445 29.8496 41.1445C25.7926 41.1445 22.505 44.4321 22.505 48.4891C22.505 52.5461 25.7926 55.8337 29.8496 55.8337C33.9066 55.8337 37.1942 52.5461 37.1942 48.4891ZM26.146 48.4891C28.0677 47.5062 28.8666 46.7073 29.8496 44.7855C30.8362 46.7073 31.6314 47.5062 33.5532 48.4891C31.6314 49.4758 30.8326 50.271 29.8496 52.1927C28.8666 50.271 28.0677 49.4721 26.146 48.4891Z" fill="#FFD484"/>
<path d="M74.3846 48.4891C74.3846 44.4321 71.097 41.1445 67.04 41.1445C62.983 41.1445 59.6954 44.4321 59.6954 48.4891C59.6954 52.5461 62.983 55.8337 67.04 55.8337C71.097 55.8337 74.3846 52.5461 74.3846 48.4891ZM63.3401 48.4891C65.2619 47.5062 66.0607 46.7073 67.0437 44.7855C68.0303 46.7073 68.8255 47.5062 70.7473 48.4891C68.8255 49.4758 68.0266 50.271 67.0437 52.1927C66.0607 50.271 65.2619 49.4721 63.3401 48.4891Z" fill="#FFD484"/>
<path d="M84.645 49.4832C70.9645 52.7229 70.9645 44.2591 84.645 47.4989C81.4053 33.8184 89.869 33.8184 86.6293 47.4989C100.31 44.2591 100.31 52.7229 86.6293 49.4832C89.869 63.1636 81.4053 63.1636 84.645 49.4832Z" fill="#FFD484"/>
<path d="M111.579 48.4891C111.579 44.4321 108.291 41.1445 104.234 41.1445C100.177 41.1445 96.8896 44.4321 96.8896 48.4891C96.8896 52.5461 100.177 55.8337 104.234 55.8337C108.291 55.8337 111.579 52.5461 111.579 48.4891ZM100.531 48.4891C102.452 47.5062 103.251 46.7073 104.234 44.7855C105.221 46.7073 106.016 47.5062 107.938 48.4891C106.016 49.4758 105.217 50.271 104.234 52.1927C103.251 50.271 102.452 49.4721 100.531 48.4891Z" fill="#FFD484"/>
<path d="M28.8555 30.8438C15.1751 34.0835 15.1751 25.6197 28.8555 28.8594C25.6158 15.179 34.0796 15.179 30.8399 28.8594C44.5203 25.6197 44.5203 34.0835 30.8399 30.8438C34.0796 44.5242 25.6158 44.5242 28.8555 30.8438Z" fill="#FFD484"/>
<path d="M66.0498 30.8438C52.3693 34.0835 52.3693 25.6197 66.0498 28.8594C62.81 15.179 71.2738 15.179 68.0341 28.8594C81.7145 25.6197 81.7145 34.0835 68.0341 30.8438C71.2738 44.5242 62.81 44.5242 66.0498 30.8438Z" fill="#FFD484"/>
<path d="M55.7894 29.8495C55.7894 25.7925 52.5018 22.5049 48.4448 22.5049C44.3878 22.5049 41.1002 25.7925 41.1002 29.8495C41.1002 33.9065 44.3878 37.1941 48.4448 37.1941C52.5018 37.1941 55.7894 33.9065 55.7894 29.8495ZM44.7412 29.8495C46.663 28.8665 47.4618 28.0676 48.4448 26.1459C49.4314 28.0676 50.2266 28.8665 52.1484 29.8495C50.2266 30.8361 49.4278 31.6313 48.4448 33.5531C47.4618 31.6313 46.663 30.8324 44.7412 29.8495Z" fill="#FFD484"/>
<path d="M18.5952 29.8495C18.5952 25.7925 15.3076 22.5049 11.2506 22.5049C7.19359 22.5049 3.90601 25.7925 3.90601 29.8495C3.90601 33.9065 7.19359 37.1941 11.2506 37.1941C15.3076 37.1941 18.5952 33.9065 18.5952 29.8495ZM7.55069 29.8495C9.47244 28.8665 10.2713 28.0676 11.2543 26.1459C12.2409 28.0676 13.0361 28.8665 14.9579 29.8495C13.0361 30.8361 12.2372 31.6313 11.2543 33.5531C10.2713 31.6313 9.47244 30.8324 7.55069 29.8495Z" fill="#FFD484"/>
<path d="M92.9836 29.8495C92.9836 25.7925 89.696 22.5049 85.639 22.5049C81.582 22.5049 78.2944 25.7925 78.2944 29.8495C78.2944 33.9065 81.582 37.1941 85.639 37.1941C89.696 37.1941 92.9836 33.9065 92.9836 29.8495ZM81.9354 29.8495C83.8572 28.8665 84.656 28.0676 85.639 26.1459C86.6256 28.0676 87.4209 28.8665 89.3426 29.8495C87.4209 30.8361 86.622 31.6313 85.639 33.5531C84.656 31.6313 83.8572 30.8324 81.9354 29.8495Z" fill="#FFD484"/>
<path d="M103.244 30.8438C89.5634 34.0835 89.5634 25.6197 103.244 28.8594C100.004 15.179 108.468 15.179 105.228 28.8594C118.909 25.6197 118.909 34.0835 105.228 30.8438C108.468 44.5242 100.004 44.5242 103.244 30.8438Z" fill="#FFD484"/>
<path d="M28.8555 68.1226C15.1751 71.3623 15.1751 62.8985 28.8555 66.1383C25.6158 52.4578 34.0796 52.4578 30.8399 66.1383C44.5203 62.8985 44.5203 71.3623 30.8399 68.1226C34.0796 81.803 25.6158 81.803 28.8555 68.1226Z" fill="#FFD484"/>
<path d="M66.0498 68.1226C52.3693 71.3623 52.3693 62.8985 66.0498 66.1383C62.81 52.4578 71.2738 52.4578 68.0341 66.1383C81.7145 62.8985 81.7145 71.3623 68.0341 68.1226C71.2738 81.803 62.81 81.803 66.0498 68.1226Z" fill="#FFD484"/>
<path d="M55.7894 67.1322C55.7894 63.0752 52.5018 59.7876 48.4448 59.7876C44.3878 59.7876 41.1002 63.0752 41.1002 67.1322C41.1002 71.1892 44.3878 74.4767 48.4448 74.4767C52.5018 74.4767 55.7894 71.1892 55.7894 67.1322ZM44.7412 67.1322C46.663 66.1492 47.4618 65.3503 48.4448 63.4286C49.4314 65.3503 50.2266 66.1492 52.1484 67.1322C50.2266 68.1188 49.4278 68.914 48.4448 70.8358C47.4618 68.914 46.663 68.1151 44.7412 67.1322Z" fill="#FFD484"/>
<path d="M18.5952 67.1322C18.5952 63.0752 15.3076 59.7876 11.2506 59.7876C7.19359 59.7876 3.90601 63.0752 3.90601 67.1322C3.90601 71.1892 7.19359 74.4767 11.2506 74.4767C15.3076 74.4767 18.5952 71.1892 18.5952 67.1322ZM7.55069 67.1322C9.47244 66.1492 10.2713 65.3503 11.2543 63.4286C12.2409 65.3503 13.0361 66.1492 14.9579 67.1322C13.0361 68.1188 12.2372 68.914 11.2543 70.8358C10.2713 68.914 9.47244 68.1151 7.55069 67.1322Z" fill="#FFD484"/>
<path d="M92.9836 67.1322C92.9836 63.0752 89.696 59.7876 85.639 59.7876C81.582 59.7876 78.2944 63.0752 78.2944 67.1322C78.2944 71.1892 81.582 74.4767 85.639 74.4767C89.696 74.4767 92.9836 71.1892 92.9836 67.1322ZM81.9354 67.1322C83.8572 66.1492 84.656 65.3503 85.639 63.4286C86.6256 65.3503 87.4209 66.1492 89.3426 67.1322C87.4209 68.1188 86.622 68.914 85.639 70.8358C84.656 68.914 83.8572 68.1151 81.9354 67.1322Z" fill="#FFD484"/>
<path d="M121.839 12.2447C108.159 15.4844 108.159 7.02061 121.839 10.2603C118.599 -3.42011 127.063 -3.42011 123.823 10.2603C137.504 7.02061 137.504 15.4844 123.823 12.2447C127.063 25.9251 118.599 25.9251 121.839 12.2447Z" fill="#FFD484"/>
<path d="M121.839 87.012C108.159 90.2517 108.159 81.7879 121.839 85.0277C118.599 71.3472 127.063 71.3472 123.823 85.0277C137.504 81.7879 137.504 90.2517 123.823 87.012C127.063 100.692 118.599 100.692 121.839 87.012Z" fill="#FFD484"/>
<path d="M121.839 49.4832C108.159 52.7229 108.159 44.2591 121.839 47.4989C118.599 33.8184 127.063 33.8184 123.823 47.4989C137.504 44.2591 137.504 52.7229 123.823 49.4832C127.063 63.1636 118.599 63.1636 121.839 49.4832Z" fill="#FFD484"/>
<path d="M130.174 29.8495C130.174 25.7925 126.886 22.5049 122.829 22.5049C118.772 22.5049 115.485 25.7925 115.485 29.8495C115.485 33.9065 118.772 37.1941 122.829 37.1941C126.886 37.1941 130.174 33.9065 130.174 29.8495ZM119.126 29.8495C121.048 28.8665 121.846 28.0676 122.829 26.1459C123.816 28.0676 124.611 28.8665 126.533 29.8495C124.611 30.8361 123.812 31.6313 122.829 33.5531C121.846 31.6313 121.048 30.8324 119.126 29.8495Z" fill="#FFD484"/>
<path d="M130.174 67.1322C130.174 63.0752 126.886 59.7876 122.829 59.7876C118.772 59.7876 115.485 63.0752 115.485 67.1322C115.485 71.1892 118.772 74.4767 122.829 74.4767C126.886 74.4767 130.174 71.1892 130.174 67.1322ZM119.126 67.1322C121.048 66.1492 121.846 65.3503 122.829 63.4286C123.816 65.3503 124.611 66.1492 126.533 67.1322C124.611 68.1188 123.812 68.914 122.829 70.8358C121.846 68.914 121.048 68.1151 119.126 67.1322Z" fill="#FFD484"/>
<path d="M103.244 68.1226C89.5634 71.3623 89.5634 62.8985 103.244 66.1383C100.004 52.4578 108.468 52.4578 105.228 66.1383C118.909 62.8985 118.909 71.3623 105.228 68.1226C108.468 81.803 100.004 81.803 103.244 68.1226Z" fill="#FFD484"/>
<path d="M148.773 11.2543C148.773 7.19725 145.485 3.90967 141.428 3.90967C137.371 3.90967 134.084 7.19725 134.084 11.2543C134.084 15.3113 137.371 18.5988 141.428 18.5988C145.485 18.5988 148.773 15.3113 148.773 11.2543ZM137.725 11.2543C139.646 10.2713 140.445 9.47241 141.428 7.55067C142.415 9.47241 143.21 10.2713 145.132 11.2543C143.21 12.2409 142.411 13.0361 141.428 14.9578C140.445 13.0361 139.646 12.2372 137.725 11.2543Z" fill="#FFD484"/>
<path d="M148.773 86.0182C148.773 81.9612 145.485 78.6736 141.428 78.6736C137.371 78.6736 134.084 81.9612 134.084 86.0182C134.084 90.0752 137.371 93.3627 141.428 93.3627C145.485 93.3627 148.773 90.0752 148.773 86.0182ZM137.725 86.0182C139.646 85.0352 140.445 84.2363 141.428 82.3146C142.415 84.2363 143.21 85.0352 145.132 86.0182C143.21 87.0048 142.411 87.8 141.428 89.7218C140.445 87.8 139.646 87.0011 137.725 86.0182Z" fill="#FFD484"/>
<path d="M10.2603 124.493C-3.42011 127.733 -3.42011 119.269 10.2603 122.509C7.02061 108.829 15.4844 108.829 12.2447 122.509C25.9251 119.269 25.9251 127.733 12.2447 124.493C15.4844 138.174 7.02061 138.174 10.2603 124.493Z" fill="#FFD484"/>
<path d="M47.4544 124.493C33.774 127.733 33.774 119.269 47.4544 122.509C44.2147 108.829 52.6785 108.829 49.4388 122.509C63.1192 119.269 63.1192 127.733 49.4388 124.493C52.6785 138.174 44.2147 138.174 47.4544 124.493Z" fill="#FFD484"/>
<path d="M37.1942 123.503C37.1942 119.446 33.9066 116.158 29.8496 116.158C25.7926 116.158 22.505 119.446 22.505 123.503C22.505 127.56 25.7926 130.848 29.8496 130.848C33.9066 130.848 37.1942 127.56 37.1942 123.503ZM26.146 123.503C28.0677 122.52 28.8666 121.721 29.8496 119.799C30.8362 121.721 31.6314 122.52 33.5532 123.503C31.6314 124.49 30.8326 125.285 29.8496 127.207C28.8666 125.285 28.0677 124.486 26.146 123.503Z" fill="#FFD484"/>
<path d="M74.3846 123.503C74.3846 119.446 71.097 116.158 67.04 116.158C62.983 116.158 59.6954 119.446 59.6954 123.503C59.6954 127.56 62.983 130.848 67.04 130.848C71.097 130.848 74.3846 127.56 74.3846 123.503ZM63.3401 123.503C65.2619 122.52 66.0607 121.721 67.0437 119.799C68.0303 121.721 68.8255 122.52 70.7473 123.503C68.8255 124.49 68.0266 125.285 67.0437 127.207C66.0607 125.285 65.2619 124.486 63.3401 123.503Z" fill="#FFD484"/>
<path d="M84.645 124.493C70.9645 127.733 70.9645 119.269 84.645 122.509C81.4053 108.829 89.869 108.829 86.6293 122.509C100.31 119.269 100.31 127.733 86.6293 124.493C89.869 138.174 81.4053 138.174 84.645 124.493Z" fill="#FFD484"/>
<path d="M111.579 123.503C111.579 119.446 108.291 116.158 104.234 116.158C100.177 116.158 96.8896 119.446 96.8896 123.503C96.8896 127.56 100.177 130.848 104.234 130.848C108.291 130.848 111.579 127.56 111.579 123.503ZM100.531 123.503C102.452 122.52 103.251 121.721 104.234 119.799C105.221 121.721 106.016 122.52 107.938 123.503C106.016 124.49 105.217 125.285 104.234 127.207C103.251 125.285 102.452 124.486 100.531 123.503Z" fill="#FFD484"/>
<path d="M121.839 124.493C108.159 127.733 108.159 119.269 121.839 122.509C118.599 108.829 127.063 108.829 123.823 122.509C137.504 119.269 137.504 127.733 123.823 124.493C127.063 138.174 118.599 138.174 121.839 124.493Z" fill="#FFD484"/>
<path d="M148.773 123.503C148.773 119.446 145.485 116.158 141.428 116.158C137.371 116.158 134.084 119.446 134.084 123.503C134.084 127.56 137.371 130.848 141.428 130.848C145.485 130.848 148.773 127.56 148.773 123.503ZM137.725 123.503C139.646 122.52 140.445 121.721 141.428 119.799C142.415 121.721 143.21 122.52 145.132 123.503C143.21 124.49 142.411 125.285 141.428 127.207C140.445 125.285 139.646 124.486 137.725 123.503Z" fill="#FFD484"/>
<path d="M148.773 48.4891C148.773 44.4321 145.485 41.1445 141.428 41.1445C137.371 41.1445 134.084 44.4321 134.084 48.4891C134.084 52.5461 137.371 55.8337 141.428 55.8337C145.485 55.8337 148.773 52.5461 148.773 48.4891ZM137.725 48.4891C139.646 47.5062 140.445 46.7073 141.428 44.7855C142.415 46.7073 143.21 47.5062 145.132 48.4891C143.21 49.4758 142.411 50.271 141.428 52.1927C140.445 50.271 139.646 49.4721 137.725 48.4891Z" fill="#FFD484"/>
<path d="M140.434 30.8438C126.754 34.0835 126.754 25.6197 140.434 28.8594C137.195 15.179 145.658 15.179 142.419 28.8594C156.099 25.6197 156.099 34.0835 142.419 30.8438C145.658 44.5242 137.195 44.5242 140.434 30.8438Z" fill="#FFD484"/>
<path d="M140.434 68.1226C126.754 71.3623 126.754 62.8985 140.434 66.1383C137.195 52.4578 145.658 52.4578 142.419 66.1383C156.099 62.8985 156.099 71.3623 142.419 68.1226C145.658 81.803 137.195 81.803 140.434 68.1226Z" fill="#FFD484"/>
<path d="M28.8555 105.607C15.1751 108.847 15.1751 100.383 28.8555 103.623C25.6158 89.9427 34.0796 89.9427 30.8399 103.623C44.5203 100.383 44.5203 108.847 30.8399 105.607C34.0796 119.288 25.6158 119.288 28.8555 105.607Z" fill="#FFD484"/>
<path d="M66.0498 105.607C52.3693 108.847 52.3693 100.383 66.0498 103.623C62.81 89.9427 71.2738 89.9427 68.0341 103.623C81.7145 100.383 81.7145 108.847 68.0341 105.607C71.2738 119.288 62.81 119.288 66.0498 105.607Z" fill="#FFD484"/>
<path d="M55.7894 104.613C55.7894 100.556 52.5018 97.2688 48.4448 97.2688C44.3878 97.2688 41.1002 100.556 41.1002 104.613C41.1002 108.67 44.3878 111.958 48.4448 111.958C52.5018 111.958 55.7894 108.67 55.7894 104.613ZM44.7412 104.613C46.663 103.63 47.4618 102.832 48.4448 100.91C49.4314 102.832 50.2266 103.63 52.1484 104.613C50.2266 105.6 49.4278 106.395 48.4448 108.317C47.4618 106.395 46.663 105.596 44.7412 104.613Z" fill="#FFD484"/>
<path d="M18.5952 104.613C18.5952 100.556 15.3076 97.2688 11.2506 97.2688C7.19359 97.2688 3.90601 100.556 3.90601 104.613C3.90601 108.67 7.19359 111.958 11.2506 111.958C15.3076 111.958 18.5952 108.67 18.5952 104.613ZM7.55069 104.613C9.47244 103.63 10.2713 102.832 11.2543 100.91C12.2409 102.832 13.0361 103.63 14.9579 104.613C13.0361 105.6 12.2372 106.395 11.2543 108.317C10.2713 106.395 9.47244 105.596 7.55069 104.613Z" fill="#FFD484"/>
<path d="M92.9836 104.613C92.9836 100.556 89.696 97.2688 85.639 97.2688C81.582 97.2688 78.2944 100.556 78.2944 104.613C78.2944 108.67 81.582 111.958 85.639 111.958C89.696 111.958 92.9836 108.67 92.9836 104.613ZM81.9354 104.613C83.8572 103.63 84.656 102.832 85.639 100.91C86.6256 102.832 87.4209 103.63 89.3426 104.613C87.4209 105.6 86.622 106.395 85.639 108.317C84.656 106.395 83.8572 105.596 81.9354 104.613Z" fill="#FFD484"/>
<path d="M130.174 104.613C130.174 100.556 126.886 97.2688 122.829 97.2688C118.772 97.2688 115.485 100.556 115.485 104.613C115.485 108.67 118.772 111.958 122.829 111.958C126.886 111.958 130.174 108.67 130.174 104.613ZM119.126 104.613C121.048 103.63 121.846 102.832 122.829 100.91C123.816 102.832 124.611 103.63 126.533 104.613C124.611 105.6 123.812 106.395 122.829 108.317C121.846 106.395 121.048 105.596 119.126 104.613Z" fill="#FFD484"/>
<path d="M103.244 105.607C89.5634 108.847 89.5634 100.383 103.244 103.623C100.004 89.9427 108.468 89.9427 105.228 103.623C118.909 100.383 118.909 108.847 105.228 105.607C108.468 119.288 100.004 119.288 103.244 105.607Z" fill="#FFD484"/>
<path d="M140.434 105.607C126.754 108.847 126.754 100.383 140.434 103.623C137.195 89.9427 145.658 89.9427 142.419 103.623C156.099 100.383 156.099 108.847 142.419 105.607C145.658 119.288 137.195 119.288 140.434 105.607Z" fill="#FFD484"/>
</g>
</g>
<g opacity="0.3">
<mask id="mask1_13_27864" style="mask-type:luminance" maskUnits="userSpaceOnUse" x="148" y="0" width="154" height="135">
<path d="M301.54 0H148.861V134.754H301.54V0Z" fill="white"/>
</mask>
<g mask="url(#mask1_13_27864)">
<path d="M159.121 12.2447C145.441 15.4844 145.441 7.02061 159.121 10.2603C155.881 -3.42011 164.345 -3.42011 161.105 10.2603C174.786 7.02061 174.786 15.4844 161.105 12.2447C164.345 25.9251 155.881 25.9251 159.121 12.2447Z" fill="#FFD484"/>
<path d="M196.315 12.2447C182.635 15.4844 182.635 7.02061 196.315 10.2603C193.076 -3.42011 201.539 -3.42011 198.3 10.2603C211.98 7.02061 211.98 15.4844 198.3 12.2447C201.539 25.9251 193.076 25.9251 196.315 12.2447Z" fill="#FFD484"/>
<path d="M186.055 11.2543C186.055 7.19725 182.767 3.90967 178.71 3.90967C174.653 3.90967 171.366 7.19725 171.366 11.2543C171.366 15.3113 174.653 18.5988 178.71 18.5988C182.767 18.5988 186.055 15.3113 186.055 11.2543ZM175.007 11.2543C176.928 10.2713 177.727 9.47241 178.71 7.55067C179.697 9.47241 180.492 10.2713 182.414 11.2543C180.492 12.2409 179.693 13.0361 178.71 14.9578C177.727 13.0361 176.928 12.2372 175.007 11.2543Z" fill="#FFD484"/>
<path d="M223.245 11.2543C223.245 7.19725 219.958 3.90967 215.901 3.90967C211.844 3.90967 208.556 7.19725 208.556 11.2543C208.556 15.3113 211.844 18.5988 215.901 18.5988C219.958 18.5988 223.245 15.3113 223.245 11.2543ZM212.201 11.2543C214.123 10.2713 214.921 9.47241 215.904 7.55067C216.891 9.47241 217.686 10.2713 219.608 11.2543C217.686 12.2409 216.887 13.0361 215.904 14.9578C214.921 13.0361 214.123 12.2372 212.201 11.2543Z" fill="#FFD484"/>
<path d="M233.506 12.2447C219.825 15.4844 219.825 7.02061 233.506 10.2603C230.266 -3.42011 238.73 -3.42011 235.49 10.2603C249.17 7.02061 249.17 15.4844 235.49 12.2447C238.73 25.9251 230.266 25.9251 233.506 12.2447Z" fill="#FFD484"/>
<path d="M260.439 11.2543C260.439 7.19725 257.152 3.90967 253.095 3.90967C249.038 3.90967 245.75 7.19725 245.75 11.2543C245.75 15.3113 249.038 18.5988 253.095 18.5988C257.152 18.5988 260.439 15.3113 260.439 11.2543ZM249.391 11.2543C251.313 10.2713 252.112 9.47241 253.095 7.55067C254.082 9.47241 254.877 10.2713 256.799 11.2543C254.877 12.2409 254.078 13.0361 253.095 14.9578C252.112 13.0361 251.313 12.2372 249.391 11.2543Z" fill="#FFD484"/>
<path d="M159.121 87.012C145.441 90.2517 145.441 81.7879 159.121 85.0277C155.881 71.3472 164.345 71.3472 161.105 85.0277C174.786 81.7879 174.786 90.2517 161.105 87.012C164.345 100.692 155.881 100.692 159.121 87.012Z" fill="#FFD484"/>
<path d="M196.315 87.012C182.635 90.2517 182.635 81.7879 196.315 85.0277C193.076 71.3472 201.539 71.3472 198.3 85.0277C211.98 81.7879 211.98 90.2517 198.3 87.012C201.539 100.692 193.076 100.692 196.315 87.012Z" fill="#FFD484"/>
<path d="M186.055 86.0182C186.055 81.9612 182.767 78.6736 178.71 78.6736C174.653 78.6736 171.366 81.9612 171.366 86.0182C171.366 90.0752 174.653 93.3627 178.71 93.3627C182.767 93.3627 186.055 90.0752 186.055 86.0182ZM175.007 86.0182C176.928 85.0352 177.727 84.2363 178.71 82.3146C179.697 84.2363 180.492 85.0352 182.414 86.0182C180.492 87.0048 179.693 87.8 178.71 89.7218C177.727 87.8 176.928 87.0011 175.007 86.0182Z" fill="#FFD484"/>
<path d="M223.245 86.0182C223.245 81.9612 219.958 78.6736 215.901 78.6736C211.844 78.6736 208.556 81.9612 208.556 86.0182C208.556 90.0752 211.844 93.3627 215.901 93.3627C219.958 93.3627 223.245 90.0752 223.245 86.0182ZM212.201 86.0182C214.123 85.0352 214.921 84.2363 215.904 82.3146C216.891 84.2363 217.686 85.0352 219.608 86.0182C217.686 87.0048 216.887 87.8 215.904 89.7218C214.921 87.8 214.123 87.0011 212.201 86.0182Z" fill="#FFD484"/>
<path d="M233.506 87.012C219.825 90.2517 219.825 81.7879 233.506 85.0277C230.266 71.3472 238.73 71.3472 235.49 85.0277C249.17 81.7879 249.17 90.2517 235.49 87.012C238.73 100.692 230.266 100.692 233.506 87.012Z" fill="#FFD484"/>
<path d="M260.439 86.0182C260.439 81.9612 257.152 78.6736 253.095 78.6736C249.038 78.6736 245.75 81.9612 245.75 86.0182C245.75 90.0752 249.038 93.3627 253.095 93.3627C257.152 93.3627 260.439 90.0752 260.439 86.0182ZM249.391 86.0182C251.313 85.0352 252.112 84.2363 253.095 82.3146C254.082 84.2363 254.877 85.0352 256.799 86.0182C254.877 87.0048 254.078 87.8 253.095 89.7218C252.112 87.8 251.313 87.0011 249.391 86.0182Z" fill="#FFD484"/>
<path d="M159.121 49.4832C145.441 52.7229 145.441 44.2591 159.121 47.4989C155.881 33.8184 164.345 33.8184 161.105 47.4989C174.786 44.2591 174.786 52.7229 161.105 49.4832C164.345 63.1636 155.881 63.1636 159.121 49.4832Z" fill="#FFD484"/>
<path d="M196.315 49.4832C182.635 52.7229 182.635 44.2591 196.315 47.4989C193.076 33.8184 201.539 33.8184 198.3 47.4989C211.98 44.2591 211.98 52.7229 198.3 49.4832C201.539 63.1636 193.076 63.1636 196.315 49.4832Z" fill="#FFD484"/>
<path d="M186.055 48.4891C186.055 44.4321 182.767 41.1445 178.71 41.1445C174.653 41.1445 171.366 44.4321 171.366 48.4891C171.366 52.5461 174.653 55.8337 178.71 55.8337C182.767 55.8337 186.055 52.5461 186.055 48.4891ZM175.007 48.4891C176.928 47.5062 177.727 46.7073 178.71 44.7855C179.697 46.7073 180.492 47.5062 182.414 48.4891C180.492 49.4758 179.693 50.271 178.71 52.1927C177.727 50.271 176.928 49.4721 175.007 48.4891Z" fill="#FFD484"/>
<path d="M223.245 48.4891C223.245 44.4321 219.958 41.1445 215.901 41.1445C211.844 41.1445 208.556 44.4321 208.556 48.4891C208.556 52.5461 211.844 55.8337 215.901 55.8337C219.958 55.8337 223.245 52.5461 223.245 48.4891ZM212.201 48.4891C214.123 47.5062 214.921 46.7073 215.904 44.7855C216.891 46.7073 217.686 47.5062 219.608 48.4891C217.686 49.4758 216.887 50.271 215.904 52.1927C214.921 50.271 214.123 49.4721 212.201 48.4891Z" fill="#FFD484"/>
<path d="M233.506 49.4832C219.825 52.7229 219.825 44.2591 233.506 47.4989C230.266 33.8184 238.73 33.8184 235.49 47.4989C249.17 44.2591 249.17 52.7229 235.49 49.4832C238.73 63.1636 230.266 63.1636 233.506 49.4832Z" fill="#FFD484"/>
<path d="M260.439 48.4891C260.439 44.4321 257.152 41.1445 253.095 41.1445C249.038 41.1445 245.75 44.4321 245.75 48.4891C245.75 52.5461 249.038 55.8337 253.095 55.8337C257.152 55.8337 260.439 52.5461 260.439 48.4891ZM249.391 48.4891C251.313 47.5062 252.112 46.7073 253.095 44.7855C254.082 46.7073 254.877 47.5062 256.799 48.4891C254.877 49.4758 254.078 50.271 253.095 52.1927C252.112 50.271 251.313 49.4721 249.391 48.4891Z" fill="#FFD484"/>
<path d="M177.716 30.8438C164.036 34.0835 164.036 25.6197 177.716 28.8594C174.477 15.179 182.94 15.179 179.701 28.8594C193.381 25.6197 193.381 34.0835 179.701 30.8438C182.94 44.5242 174.477 44.5242 177.716 30.8438Z" fill="#FFD484"/>
<path d="M214.91 30.8438C201.23 34.0835 201.23 25.6197 214.91 28.8594C211.671 15.179 220.135 15.179 216.895 28.8594C230.575 25.6197 230.575 34.0835 216.895 30.8438C220.135 44.5242 211.671 44.5242 214.91 30.8438Z" fill="#FFD484"/>
<path d="M204.65 29.8495C204.65 25.7925 201.363 22.5049 197.306 22.5049C193.249 22.5049 189.961 25.7925 189.961 29.8495C189.961 33.9065 193.249 37.1941 197.306 37.1941C201.363 37.1941 204.65 33.9065 204.65 29.8495ZM193.602 29.8495C195.524 28.8665 196.323 28.0676 197.306 26.1459C198.292 28.0676 199.087 28.8665 201.009 29.8495C199.087 30.8361 198.288 31.6313 197.306 33.5531C196.323 31.6313 195.524 30.8324 193.602 29.8495Z" fill="#FFD484"/>
<path d="M167.456 29.8495C167.456 25.7925 164.168 22.5049 160.111 22.5049C156.054 22.5049 152.767 25.7925 152.767 29.8495C152.767 33.9065 156.054 37.1941 160.111 37.1941C164.168 37.1941 167.456 33.9065 167.456 29.8495ZM156.412 29.8495C158.333 28.8665 159.132 28.0676 160.115 26.1459C161.102 28.0676 161.897 28.8665 163.819 29.8495C161.897 30.8361 161.098 31.6313 160.115 33.5531C159.132 31.6313 158.333 30.8324 156.412 29.8495Z" fill="#FFD484"/>
<path d="M241.844 29.8495C241.844 25.7925 238.557 22.5049 234.5 22.5049C230.443 22.5049 227.155 25.7925 227.155 29.8495C227.155 33.9065 230.443 37.1941 234.5 37.1941C238.557 37.1941 241.844 33.9065 241.844 29.8495ZM230.796 29.8495C232.718 28.8665 233.517 28.0676 234.5 26.1459C235.486 28.0676 236.281 28.8665 238.203 29.8495C236.281 30.8361 235.483 31.6313 234.5 33.5531C233.517 31.6313 232.718 30.8324 230.796 29.8495Z" fill="#FFD484"/>
<path d="M252.105 30.8438C238.424 34.0835 238.424 25.6197 252.105 28.8594C248.865 15.179 257.329 15.179 254.089 28.8594C267.769 25.6197 267.769 34.0835 254.089 30.8438C257.329 44.5242 248.865 44.5242 252.105 30.8438Z" fill="#FFD484"/>
<path d="M177.716 68.1226C164.036 71.3623 164.036 62.8985 177.716 66.1383C174.477 52.4578 182.94 52.4578 179.701 66.1383C193.381 62.8985 193.381 71.3623 179.701 68.1226C182.94 81.803 174.477 81.803 177.716 68.1226Z" fill="#FFD484"/>
<path d="M214.91 68.1226C201.23 71.3623 201.23 62.8985 214.91 66.1383C211.671 52.4578 220.135 52.4578 216.895 66.1383C230.575 62.8985 230.575 71.3623 216.895 68.1226C220.135 81.803 211.671 81.803 214.91 68.1226Z" fill="#FFD484"/>
<path d="M204.65 67.1322C204.65 63.0752 201.363 59.7876 197.306 59.7876C193.249 59.7876 189.961 63.0752 189.961 67.1322C189.961 71.1892 193.249 74.4767 197.306 74.4767C201.363 74.4767 204.65 71.1892 204.65 67.1322ZM193.602 67.1322C195.524 66.1492 196.323 65.3503 197.306 63.4286C198.292 65.3503 199.087 66.1492 201.009 67.1322C199.087 68.1188 198.288 68.914 197.306 70.8358C196.323 68.914 195.524 68.1151 193.602 67.1322Z" fill="#FFD484"/>
<path d="M167.456 67.1322C167.456 63.0752 164.168 59.7876 160.111 59.7876C156.054 59.7876 152.767 63.0752 152.767 67.1322C152.767 71.1892 156.054 74.4767 160.111 74.4767C164.168 74.4767 167.456 71.1892 167.456 67.1322ZM156.412 67.1322C158.333 66.1492 159.132 65.3503 160.115 63.4286C161.102 65.3503 161.897 66.1492 163.819 67.1322C161.897 68.1188 161.098 68.914 160.115 70.8358C159.132 68.914 158.333 68.1151 156.412 67.1322Z" fill="#FFD484"/>
<path d="M241.844 67.1322C241.844 63.0752 238.557 59.7876 234.5 59.7876C230.443 59.7876 227.155 63.0752 227.155 67.1322C227.155 71.1892 230.443 74.4767 234.5 74.4767C238.557 74.4767 241.844 71.1892 241.844 67.1322ZM230.796 67.1322C232.718 66.1492 233.517 65.3503 234.5 63.4286C235.486 65.3503 236.281 66.1492 238.203 67.1322C236.281 68.1188 235.483 68.914 234.5 70.8358C233.517 68.914 232.718 68.1151 230.796 67.1322Z" fill="#FFD484"/>
<path d="M270.7 12.2447C257.019 15.4844 257.019 7.02061 270.7 10.2603C267.46 -3.42011 275.924 -3.42011 272.684 10.2603C286.365 7.02061 286.365 15.4844 272.684 12.2447C275.924 25.9251 267.46 25.9251 270.7 12.2447Z" fill="#FFD484"/>
<path d="M270.7 87.012C257.019 90.2517 257.019 81.7879 270.7 85.0277C267.46 71.3472 275.924 71.3472 272.684 85.0277C286.365 81.7879 286.365 90.2517 272.684 87.012C275.924 100.692 267.46 100.692 270.7 87.012Z" fill="#FFD484"/>
<path d="M270.7 49.4832C257.019 52.7229 257.019 44.2591 270.7 47.4989C267.46 33.8184 275.924 33.8184 272.684 47.4989C286.365 44.2591 286.365 52.7229 272.684 49.4832C275.924 63.1636 267.46 63.1636 270.7 49.4832Z" fill="#FFD484"/>
<path d="M279.035 29.8495C279.035 25.7925 275.747 22.5049 271.69 22.5049C267.633 22.5049 264.345 25.7925 264.345 29.8495C264.345 33.9065 267.633 37.1941 271.69 37.1941C275.747 37.1941 279.035 33.9065 279.035 29.8495ZM267.986 29.8495C269.908 28.8665 270.707 28.0676 271.69 26.1459C272.677 28.0676 273.472 28.8665 275.394 29.8495C273.472 30.8361 272.673 31.6313 271.69 33.5531C270.707 31.6313 269.908 30.8324 267.986 29.8495Z" fill="#FFD484"/>
<path d="M279.035 67.1322C279.035 63.0752 275.747 59.7876 271.69 59.7876C267.633 59.7876 264.345 63.0752 264.345 67.1322C264.345 71.1892 267.633 74.4767 271.69 74.4767C275.747 74.4767 279.035 71.1892 279.035 67.1322ZM267.986 67.1322C269.908 66.1492 270.707 65.3503 271.69 63.4286C272.677 65.3503 273.472 66.1492 275.394 67.1322C273.472 68.1188 272.673 68.914 271.69 70.8358C270.707 68.914 269.908 68.1151 267.986 67.1322Z" fill="#FFD484"/>
<path d="M252.105 68.1226C238.424 71.3623 238.424 62.8985 252.105 66.1383C248.865 52.4578 257.329 52.4578 254.089 66.1383C267.769 62.8985 267.769 71.3623 254.089 68.1226C257.329 81.803 248.865 81.803 252.105 68.1226Z" fill="#FFD484"/>
<path d="M297.634 11.2543C297.634 7.19725 294.346 3.90967 290.289 3.90967C286.232 3.90967 282.944 7.19725 282.944 11.2543C282.944 15.3113 286.232 18.5988 290.289 18.5988C294.346 18.5988 297.634 15.3113 297.634 11.2543ZM286.585 11.2543C288.507 10.2713 289.306 9.47241 290.289 7.55067C291.276 9.47241 292.071 10.2713 293.993 11.2543C292.071 12.2409 291.272 13.0361 290.289 14.9578C289.306 13.0361 288.507 12.2372 286.585 11.2543Z" fill="#FFD484"/>
<path d="M297.634 86.0182C297.634 81.9612 294.346 78.6736 290.289 78.6736C286.232 78.6736 282.944 81.9612 282.944 86.0182C282.944 90.0752 286.232 93.3627 290.289 93.3627C294.346 93.3627 297.634 90.0752 297.634 86.0182ZM286.585 86.0182C288.507 85.0352 289.306 84.2363 290.289 82.3146C291.276 84.2363 292.071 85.0352 293.993 86.0182C292.071 87.0048 291.272 87.8 290.289 89.7218C289.306 87.8 288.507 87.0011 286.585 86.0182Z" fill="#FFD484"/>
<path d="M159.121 124.493C145.441 127.733 145.441 119.269 159.121 122.509C155.881 108.829 164.345 108.829 161.105 122.509C174.786 119.269 174.786 127.733 161.105 124.493C164.345 138.174 155.881 138.174 159.121 124.493Z" fill="#FFD484"/>
<path d="M196.315 124.493C182.635 127.733 182.635 119.269 196.315 122.509C193.076 108.829 201.539 108.829 198.3 122.509C211.98 119.269 211.98 127.733 198.3 124.493C201.539 138.174 193.076 138.174 196.315 124.493Z" fill="#FFD484"/>
<path d="M186.055 123.503C186.055 119.446 182.767 116.158 178.71 116.158C174.653 116.158 171.366 119.446 171.366 123.503C171.366 127.56 174.653 130.848 178.71 130.848C182.767 130.848 186.055 127.56 186.055 123.503ZM175.007 123.503C176.928 122.52 177.727 121.721 178.71 119.799C179.697 121.721 180.492 122.52 182.414 123.503C180.492 124.49 179.693 125.285 178.71 127.207C177.727 125.285 176.928 124.486 175.007 123.503Z" fill="#FFD484"/>
<path d="M223.245 123.503C223.245 119.446 219.958 116.158 215.901 116.158C211.844 116.158 208.556 119.446 208.556 123.503C208.556 127.56 211.844 130.848 215.901 130.848C219.958 130.848 223.245 127.56 223.245 123.503ZM212.201 123.503C214.123 122.52 214.921 121.721 215.904 119.799C216.891 121.721 217.686 122.52 219.608 123.503C217.686 124.49 216.887 125.285 215.904 127.207C214.921 125.285 214.123 124.486 212.201 123.503Z" fill="#FFD484"/>
<path d="M233.506 124.493C219.825 127.733 219.825 119.269 233.506 122.509C230.266 108.829 238.73 108.829 235.49 122.509C249.17 119.269 249.17 127.733 235.49 124.493C238.73 138.174 230.266 138.174 233.506 124.493Z" fill="#FFD484"/>
<path d="M260.439 123.503C260.439 119.446 257.152 116.158 253.095 116.158C249.038 116.158 245.75 119.446 245.75 123.503C245.75 127.56 249.038 130.848 253.095 130.848C257.152 130.848 260.439 127.56 260.439 123.503ZM249.391 123.503C251.313 122.52 252.112 121.721 253.095 119.799C254.082 121.721 254.877 122.52 256.799 123.503C254.877 124.49 254.078 125.285 253.095 127.207C252.112 125.285 251.313 124.486 249.391 123.503Z" fill="#FFD484"/>
<path d="M270.7 124.493C257.019 127.733 257.019 119.269 270.7 122.509C267.46 108.829 275.924 108.829 272.684 122.509C286.365 119.269 286.365 127.733 272.684 124.493C275.924 138.174 267.46 138.174 270.7 124.493Z" fill="#FFD484"/>
<path d="M297.634 123.503C297.634 119.446 294.346 116.158 290.289 116.158C286.232 116.158 282.944 119.446 282.944 123.503C282.944 127.56 286.232 130.848 290.289 130.848C294.346 130.848 297.634 127.56 297.634 123.503ZM286.585 123.503C288.507 122.52 289.306 121.721 290.289 119.799C291.276 121.721 292.071 122.52 293.993 123.503C292.071 124.49 291.272 125.285 290.289 127.207C289.306 125.285 288.507 124.486 286.585 123.503Z" fill="#FFD484"/>
<path d="M297.634 48.4891C297.634 44.4321 294.346 41.1445 290.289 41.1445C286.232 41.1445 282.944 44.4321 282.944 48.4891C282.944 52.5461 286.232 55.8337 290.289 55.8337C294.346 55.8337 297.634 52.5461 297.634 48.4891ZM286.585 48.4891C288.507 47.5062 289.306 46.7073 290.289 44.7855C291.276 46.7073 292.071 47.5062 293.993 48.4891C292.071 49.4758 291.272 50.271 290.289 52.1927C289.306 50.271 288.507 49.4721 286.585 48.4891Z" fill="#FFD484"/>
<path d="M289.295 30.8438C275.615 34.0835 275.615 25.6197 289.295 28.8594C286.055 15.179 294.519 15.179 291.279 28.8594C304.96 25.6197 304.96 34.0835 291.279 30.8438C294.519 44.5242 286.055 44.5242 289.295 30.8438Z" fill="#FFD484"/>
<path d="M289.295 68.1226C275.615 71.3623 275.615 62.8985 289.295 66.1383C286.055 52.4578 294.519 52.4578 291.279 66.1383C304.96 62.8985 304.96 71.3623 291.279 68.1226C294.519 81.803 286.055 81.803 289.295 68.1226Z" fill="#FFD484"/>
<path d="M177.716 105.607C164.036 108.847 164.036 100.383 177.716 103.623C174.477 89.9427 182.94 89.9427 179.701 103.623C193.381 100.383 193.381 108.847 179.701 105.607C182.94 119.288 174.477 119.288 177.716 105.607Z" fill="#FFD484"/>
<path d="M214.91 105.607C201.23 108.847 201.23 100.383 214.91 103.623C211.671 89.9427 220.135 89.9427 216.895 103.623C230.575 100.383 230.575 108.847 216.895 105.607C220.135 119.288 211.671 119.288 214.91 105.607Z" fill="#FFD484"/>
<path d="M204.65 104.613C204.65 100.556 201.363 97.2688 197.306 97.2688C193.249 97.2688 189.961 100.556 189.961 104.613C189.961 108.67 193.249 111.958 197.306 111.958C201.363 111.958 204.65 108.67 204.65 104.613ZM193.602 104.613C195.524 103.63 196.323 102.832 197.306 100.91C198.292 102.832 199.087 103.63 201.009 104.613C199.087 105.6 198.288 106.395 197.306 108.317C196.323 106.395 195.524 105.596 193.602 104.613Z" fill="#FFD484"/>
<path d="M167.456 104.613C167.456 100.556 164.168 97.2688 160.111 97.2688C156.054 97.2688 152.767 100.556 152.767 104.613C152.767 108.67 156.054 111.958 160.111 111.958C164.168 111.958 167.456 108.67 167.456 104.613ZM156.412 104.613C158.333 103.63 159.132 102.832 160.115 100.91C161.102 102.832 161.897 103.63 163.819 104.613C161.897 105.6 161.098 106.395 160.115 108.317C159.132 106.395 158.333 105.596 156.412 104.613Z" fill="#FFD484"/>
<path d="M241.844 104.613C241.844 100.556 238.557 97.2688 234.5 97.2688C230.443 97.2688 227.155 100.556 227.155 104.613C227.155 108.67 230.443 111.958 234.5 111.958C238.557 111.958 241.844 108.67 241.844 104.613ZM230.796 104.613C232.718 103.63 233.517 102.832 234.5 100.91C235.486 102.832 236.281 103.63 238.203 104.613C236.281 105.6 235.483 106.395 234.5 108.317C233.517 106.395 232.718 105.596 230.796 104.613Z" fill="#FFD484"/>
<path d="M279.035 104.613C279.035 100.556 275.747 97.2688 271.69 97.2688C267.633 97.2688 264.345 100.556 264.345 104.613C264.345 108.67 267.633 111.958 271.69 111.958C275.747 111.958 279.035 108.67 279.035 104.613ZM267.986 104.613C269.908 103.63 270.707 102.832 271.69 100.91C272.677 102.832 273.472 103.63 275.394 104.613C273.472 105.6 272.673 106.395 271.69 108.317C270.707 106.395 269.908 105.596 267.986 104.613Z" fill="#FFD484"/>
<path d="M252.105 105.607C238.424 108.847 238.424 100.383 252.105 103.623C248.865 89.9427 257.329 89.9427 254.089 103.623C267.769 100.383 267.769 108.847 254.089 105.607C257.329 119.288 248.865 119.288 252.105 105.607Z" fill="#FFD484"/>
<path d="M289.295 105.607C275.615 108.847 275.615 100.383 289.295 103.623C286.055 89.9427 294.519 89.9427 291.279 103.623C304.96 100.383 304.96 108.847 291.279 105.607C294.519 119.288 286.055 119.288 289.295 105.607Z" fill="#FFD484"/>
</g>
</g>
<g opacity="0.3">
<mask id="mask2_13_27864" style="mask-type:luminance" maskUnits="userSpaceOnUse" x="297" y="0" width="154" height="135">
<path d="M450.4 0H297.721V134.754H450.4V0Z" fill="white"/>
</mask>
<g mask="url(#mask2_13_27864)">
<path d="M307.982 12.2447C294.301 15.4844 294.301 7.02061 307.982 10.2603C304.742 -3.42011 313.206 -3.42011 309.966 10.2603C323.647 7.02061 323.647 15.4844 309.966 12.2447C313.206 25.9251 304.742 25.9251 307.982 12.2447Z" fill="#FFD484"/>
<path d="M345.176 12.2447C331.495 15.4844 331.495 7.02061 345.176 10.2603C341.936 -3.42011 350.4 -3.42011 347.16 10.2603C360.841 7.02061 360.841 15.4844 347.16 12.2447C350.4 25.9251 341.936 25.9251 345.176 12.2447Z" fill="#FFD484"/>
<path d="M334.915 11.2543C334.915 7.19725 331.628 3.90967 327.571 3.90967C323.514 3.90967 320.226 7.19725 320.226 11.2543C320.226 15.3113 323.514 18.5988 327.571 18.5988C331.628 18.5988 334.915 15.3113 334.915 11.2543ZM323.867 11.2543C325.789 10.2713 326.588 9.47241 327.571 7.55067C328.558 9.47241 329.353 10.2713 331.274 11.2543C329.353 12.2409 328.554 13.0361 327.571 14.9578C326.588 13.0361 325.789 12.2372 323.867 11.2543Z" fill="#FFD484"/>
<path d="M372.106 11.2543C372.106 7.19725 368.819 3.90967 364.762 3.90967C360.705 3.90967 357.417 7.19725 357.417 11.2543C357.417 15.3113 360.705 18.5988 364.762 18.5988C368.819 18.5988 372.106 15.3113 372.106 11.2543ZM361.062 11.2543C362.983 10.2713 363.782 9.47241 364.765 7.55067C365.752 9.47241 366.547 10.2713 368.469 11.2543C366.547 12.2409 365.748 13.0361 364.765 14.9578C363.782 13.0361 362.983 12.2372 361.062 11.2543Z" fill="#FFD484"/>
<path d="M382.366 12.2447C368.686 15.4844 368.686 7.02061 382.366 10.2603C379.127 -3.42011 387.59 -3.42011 384.351 10.2603C398.031 7.02061 398.031 15.4844 384.351 12.2447C387.59 25.9251 379.127 25.9251 382.366 12.2447Z" fill="#FFD484"/>
<path d="M409.3 11.2543C409.3 7.19725 406.013 3.90967 401.956 3.90967C397.899 3.90967 394.611 7.19725 394.611 11.2543C394.611 15.3113 397.899 18.5988 401.956 18.5988C406.013 18.5988 409.3 15.3113 409.3 11.2543ZM398.252 11.2543C400.174 10.2713 400.973 9.47241 401.956 7.55067C402.942 9.47241 403.738 10.2713 405.659 11.2543C403.738 12.2409 402.939 13.0361 401.956 14.9578C400.973 13.0361 400.174 12.2372 398.252 11.2543Z" fill="#FFD484"/>
<path d="M307.982 87.012C294.301 90.2517 294.301 81.7879 307.982 85.0277C304.742 71.3472 313.206 71.3472 309.966 85.0277C323.647 81.7879 323.647 90.2517 309.966 87.012C313.206 100.692 304.742 100.692 307.982 87.012Z" fill="#FFD484"/>
<path d="M345.176 87.012C331.495 90.2517 331.495 81.7879 345.176 85.0277C341.936 71.3472 350.4 71.3472 347.16 85.0277C360.841 81.7879 360.841 90.2517 347.16 87.012C350.4 100.692 341.936 100.692 345.176 87.012Z" fill="#FFD484"/>
<path d="M334.915 86.0182C334.915 81.9612 331.628 78.6736 327.571 78.6736C323.514 78.6736 320.226 81.9612 320.226 86.0182C320.226 90.0752 323.514 93.3627 327.571 93.3627C331.628 93.3627 334.915 90.0752 334.915 86.0182ZM323.867 86.0182C325.789 85.0352 326.588 84.2363 327.571 82.3146C328.558 84.2363 329.353 85.0352 331.274 86.0182C329.353 87.0048 328.554 87.8 327.571 89.7218C326.588 87.8 325.789 87.0011 323.867 86.0182Z" fill="#FFD484"/>
<path d="M372.106 86.0182C372.106 81.9612 368.819 78.6736 364.762 78.6736C360.705 78.6736 357.417 81.9612 357.417 86.0182C357.417 90.0752 360.705 93.3627 364.762 93.3627C368.819 93.3627 372.106 90.0752 372.106 86.0182ZM361.062 86.0182C362.983 85.0352 363.782 84.2363 364.765 82.3146C365.752 84.2363 366.547 85.0352 368.469 86.0182C366.547 87.0048 365.748 87.8 364.765 89.7218C363.782 87.8 362.983 87.0011 361.062 86.0182Z" fill="#FFD484"/>
<path d="M382.366 87.012C368.686 90.2517 368.686 81.7879 382.366 85.0277C379.127 71.3472 387.59 71.3472 384.351 85.0277C398.031 81.7879 398.031 90.2517 384.351 87.012C387.59 100.692 379.127 100.692 382.366 87.012Z" fill="#FFD484"/>
<path d="M409.3 86.0182C409.3 81.9612 406.013 78.6736 401.956 78.6736C397.899 78.6736 394.611 81.9612 394.611 86.0182C394.611 90.0752 397.899 93.3627 401.956 93.3627C406.013 93.3627 409.3 90.0752 409.3 86.0182ZM398.252 86.0182C400.174 85.0352 400.973 84.2363 401.956 82.3146C402.942 84.2363 403.738 85.0352 405.659 86.0182C403.738 87.0048 402.939 87.8 401.956 89.7218C400.973 87.8 400.174 87.0011 398.252 86.0182Z" fill="#FFD484"/>
<path d="M307.982 49.4832C294.301 52.7229 294.301 44.2591 307.982 47.4989C304.742 33.8184 313.206 33.8184 309.966 47.4989C323.647 44.2591 323.647 52.7229 309.966 49.4832C313.206 63.1636 304.742 63.1636 307.982 49.4832Z" fill="#FFD484"/>
<path d="M345.176 49.4832C331.495 52.7229 331.495 44.2591 345.176 47.4989C341.936 33.8184 350.4 33.8184 347.16 47.4989C360.841 44.2591 360.841 52.7229 347.16 49.4832C350.4 63.1636 341.936 63.1636 345.176 49.4832Z" fill="#FFD484"/>
<path d="M334.915 48.4891C334.915 44.4321 331.628 41.1445 327.571 41.1445C323.514 41.1445 320.226 44.4321 320.226 48.4891C320.226 52.5461 323.514 55.8337 327.571 55.8337C331.628 55.8337 334.915 52.5461 334.915 48.4891ZM323.867 48.4891C325.789 47.5062 326.588 46.7073 327.571 44.7855C328.558 46.7073 329.353 47.5062 331.274 48.4891C329.353 49.4758 328.554 50.271 327.571 52.1927C326.588 50.271 325.789 49.4721 323.867 48.4891Z" fill="#FFD484"/>
<path d="M372.106 48.4891C372.106 44.4321 368.819 41.1445 364.762 41.1445C360.705 41.1445 357.417 44.4321 357.417 48.4891C357.417 52.5461 360.705 55.8337 364.762 55.8337C368.819 55.8337 372.106 52.5461 372.106 48.4891ZM361.062 48.4891C362.983 47.5062 363.782 46.7073 364.765 44.7855C365.752 46.7073 366.547 47.5062 368.469 48.4891C366.547 49.4758 365.748 50.271 364.765 52.1927C363.782 50.271 362.983 49.4721 361.062 48.4891Z" fill="#FFD484"/>
<path d="M382.366 49.4832C368.686 52.7229 368.686 44.2591 382.366 47.4989C379.127 33.8184 387.59 33.8184 384.351 47.4989C398.031 44.2591 398.031 52.7229 384.351 49.4832C387.59 63.1636 379.127 63.1636 382.366 49.4832Z" fill="#FFD484"/>
<path d="M409.3 48.4891C409.3 44.4321 406.013 41.1445 401.956 41.1445C397.899 41.1445 394.611 44.4321 394.611 48.4891C394.611 52.5461 397.899 55.8337 401.956 55.8337C406.013 55.8337 409.3 52.5461 409.3 48.4891ZM398.252 48.4891C400.174 47.5062 400.973 46.7073 401.956 44.7855C402.942 46.7073 403.738 47.5062 405.659 48.4891C403.738 49.4758 402.939 50.271 401.956 52.1927C400.973 50.271 400.174 49.4721 398.252 48.4891Z" fill="#FFD484"/>
<path d="M326.577 30.8438C312.897 34.0835 312.897 25.6197 326.577 28.8594C323.337 15.179 331.801 15.179 328.561 28.8594C342.242 25.6197 342.242 34.0835 328.561 30.8438C331.801 44.5242 323.337 44.5242 326.577 30.8438Z" fill="#FFD484"/>
<path d="M363.771 30.8438C350.091 34.0835 350.091 25.6197 363.771 28.8594C360.531 15.179 368.995 15.179 365.755 28.8594C379.436 25.6197 379.436 34.0835 365.755 30.8438C368.995 44.5242 360.531 44.5242 363.771 30.8438Z" fill="#FFD484"/>
<path d="M353.511 29.8495C353.511 25.7925 350.223 22.5049 346.166 22.5049C342.109 22.5049 338.822 25.7925 338.822 29.8495C338.822 33.9065 342.109 37.1941 346.166 37.1941C350.223 37.1941 353.511 33.9065 353.511 29.8495ZM342.463 29.8495C344.384 28.8665 345.183 28.0676 346.166 26.1459C347.153 28.0676 347.948 28.8665 349.87 29.8495C347.948 30.8361 347.149 31.6313 346.166 33.5531C345.183 31.6313 344.384 30.8324 342.463 29.8495Z" fill="#FFD484"/>
<path d="M316.317 29.8495C316.317 25.7925 313.029 22.5049 308.972 22.5049C304.915 22.5049 301.627 25.7925 301.627 29.8495C301.627 33.9065 304.915 37.1941 308.972 37.1941C313.029 37.1941 316.317 33.9065 316.317 29.8495ZM305.272 29.8495C307.194 28.8665 307.993 28.0676 308.976 26.1459C309.962 28.0676 310.758 28.8665 312.679 29.8495C310.758 30.8361 309.959 31.6313 308.976 33.5531C307.993 31.6313 307.194 30.8324 305.272 29.8495Z" fill="#FFD484"/>
<path d="M390.705 29.8495C390.705 25.7925 387.417 22.5049 383.36 22.5049C379.303 22.5049 376.016 25.7925 376.016 29.8495C376.016 33.9065 379.303 37.1941 383.36 37.1941C387.417 37.1941 390.705 33.9065 390.705 29.8495ZM379.657 29.8495C381.579 28.8665 382.377 28.0676 383.36 26.1459C384.347 28.0676 385.142 28.8665 387.064 29.8495C385.142 30.8361 384.343 31.6313 383.36 33.5531C382.377 31.6313 381.579 30.8324 379.657 29.8495Z" fill="#FFD484"/>
<path d="M400.965 30.8438C387.285 34.0835 387.285 25.6197 400.965 28.8594C397.726 15.179 406.189 15.179 402.95 28.8594C416.63 25.6197 416.63 34.0835 402.95 30.8438C406.189 44.5242 397.726 44.5242 400.965 30.8438Z" fill="#FFD484"/>
<path d="M326.577 68.1226C312.897 71.3623 312.897 62.8985 326.577 66.1383C323.337 52.4578 331.801 52.4578 328.561 66.1383C342.242 62.8985 342.242 71.3623 328.561 68.1226C331.801 81.803 323.337 81.803 326.577 68.1226Z" fill="#FFD484"/>
<path d="M363.771 68.1226C350.091 71.3623 350.091 62.8985 363.771 66.1383C360.531 52.4578 368.995 52.4578 365.755 66.1383C379.436 62.8985 379.436 71.3623 365.755 68.1226C368.995 81.803 360.531 81.803 363.771 68.1226Z" fill="#FFD484"/>
<path d="M353.511 67.1322C353.511 63.0752 350.223 59.7876 346.166 59.7876C342.109 59.7876 338.822 63.0752 338.822 67.1322C338.822 71.1892 342.109 74.4767 346.166 74.4767C350.223 74.4767 353.511 71.1892 353.511 67.1322ZM342.463 67.1322C344.384 66.1492 345.183 65.3503 346.166 63.4286C347.153 65.3503 347.948 66.1492 349.87 67.1322C347.948 68.1188 347.149 68.914 346.166 70.8358C345.183 68.914 344.384 68.1151 342.463 67.1322Z" fill="#FFD484"/>
<path d="M316.317 67.1322C316.317 63.0752 313.029 59.7876 308.972 59.7876C304.915 59.7876 301.627 63.0752 301.627 67.1322C301.627 71.1892 304.915 74.4767 308.972 74.4767C313.029 74.4767 316.317 71.1892 316.317 67.1322ZM305.272 67.1322C307.194 66.1492 307.993 65.3503 308.976 63.4286C309.962 65.3503 310.758 66.1492 312.679 67.1322C310.758 68.1188 309.959 68.914 308.976 70.8358C307.993 68.914 307.194 68.1151 305.272 67.1322Z" fill="#FFD484"/>
<path d="M390.705 67.1322C390.705 63.0752 387.417 59.7876 383.36 59.7876C379.303 59.7876 376.016 63.0752 376.016 67.1322C376.016 71.1892 379.303 74.4767 383.36 74.4767C387.417 74.4767 390.705 71.1892 390.705 67.1322ZM379.657 67.1322C381.579 66.1492 382.377 65.3503 383.36 63.4286C384.347 65.3503 385.142 66.1492 387.064 67.1322C385.142 68.1188 384.343 68.914 383.36 70.8358C382.377 68.914 381.579 68.1151 379.657 67.1322Z" fill="#FFD484"/>
<path d="M419.561 12.2447C405.88 15.4844 405.88 7.02061 419.561 10.2603C416.321 -3.42011 424.785 -3.42011 421.545 10.2603C435.225 7.02061 435.225 15.4844 421.545 12.2447C424.785 25.9251 416.321 25.9251 419.561 12.2447Z" fill="#FFD484"/>
<path d="M419.561 87.012C405.88 90.2517 405.88 81.7879 419.561 85.0277C416.321 71.3472 424.785 71.3472 421.545 85.0277C435.225 81.7879 435.225 90.2517 421.545 87.012C424.785 100.692 416.321 100.692 419.561 87.012Z" fill="#FFD484"/>
<path d="M419.561 49.4832C405.88 52.7229 405.88 44.2591 419.561 47.4989C416.321 33.8184 424.785 33.8184 421.545 47.4989C435.225 44.2591 435.225 52.7229 421.545 49.4832C424.785 63.1636 416.321 63.1636 419.561 49.4832Z" fill="#FFD484"/>
<path d="M427.895 29.8495C427.895 25.7925 424.608 22.5049 420.551 22.5049C416.494 22.5049 413.206 25.7925 413.206 29.8495C413.206 33.9065 416.494 37.1941 420.551 37.1941C424.608 37.1941 427.895 33.9065 427.895 29.8495ZM416.847 29.8495C418.769 28.8665 419.568 28.0676 420.551 26.1459C421.538 28.0676 422.333 28.8665 424.254 29.8495C422.333 30.8361 421.534 31.6313 420.551 33.5531C419.568 31.6313 418.769 30.8324 416.847 29.8495Z" fill="#FFD484"/>
<path d="M427.895 67.1322C427.895 63.0752 424.608 59.7876 420.551 59.7876C416.494 59.7876 413.206 63.0752 413.206 67.1322C413.206 71.1892 416.494 74.4767 420.551 74.4767C424.608 74.4767 427.895 71.1892 427.895 67.1322ZM416.847 67.1322C418.769 66.1492 419.568 65.3503 420.551 63.4286C421.538 65.3503 422.333 66.1492 424.254 67.1322C422.333 68.1188 421.534 68.914 420.551 70.8358C419.568 68.914 418.769 68.1151 416.847 67.1322Z" fill="#FFD484"/>
<path d="M400.965 68.1226C387.285 71.3623 387.285 62.8985 400.965 66.1383C397.726 52.4578 406.189 52.4578 402.95 66.1383C416.63 62.8985 416.63 71.3623 402.95 68.1226C406.189 81.803 397.726 81.803 400.965 68.1226Z" fill="#FFD484"/>
<path d="M446.494 11.2543C446.494 7.19725 443.207 3.90967 439.15 3.90967C435.093 3.90967 431.805 7.19725 431.805 11.2543C431.805 15.3113 435.093 18.5988 439.15 18.5988C443.207 18.5988 446.494 15.3113 446.494 11.2543ZM435.446 11.2543C437.368 10.2713 438.167 9.47241 439.15 7.55067C440.136 9.47241 440.932 10.2713 442.853 11.2543C440.932 12.2409 440.133 13.0361 439.15 14.9578C438.167 13.0361 437.368 12.2372 435.446 11.2543Z" fill="#FFD484"/>
<path d="M446.494 86.0182C446.494 81.9612 443.207 78.6736 439.15 78.6736C435.093 78.6736 431.805 81.9612 431.805 86.0182C431.805 90.0752 435.093 93.3627 439.15 93.3627C443.207 93.3627 446.494 90.0752 446.494 86.0182ZM435.446 86.0182C437.368 85.0352 438.167 84.2363 439.15 82.3146C440.136 84.2363 440.932 85.0352 442.853 86.0182C440.932 87.0048 440.133 87.8 439.15 89.7218C438.167 87.8 437.368 87.0011 435.446 86.0182Z" fill="#FFD484"/>
<path d="M307.982 124.493C294.301 127.733 294.301 119.269 307.982 122.509C304.742 108.829 313.206 108.829 309.966 122.509C323.647 119.269 323.647 127.733 309.966 124.493C313.206 138.174 304.742 138.174 307.982 124.493Z" fill="#FFD484"/>
<path d="M345.176 124.493C331.495 127.733 331.495 119.269 345.176 122.509C341.936 108.829 350.4 108.829 347.16 122.509C360.841 119.269 360.841 127.733 347.16 124.493C350.4 138.174 341.936 138.174 345.176 124.493Z" fill="#FFD484"/>
<path d="M334.915 123.503C334.915 119.446 331.628 116.158 327.571 116.158C323.514 116.158 320.226 119.446 320.226 123.503C320.226 127.56 323.514 130.848 327.571 130.848C331.628 130.848 334.915 127.56 334.915 123.503ZM323.867 123.503C325.789 122.52 326.588 121.721 327.571 119.799C328.558 121.721 329.353 122.52 331.274 123.503C329.353 124.49 328.554 125.285 327.571 127.207C326.588 125.285 325.789 124.486 323.867 123.503Z" fill="#FFD484"/>
<path d="M372.106 123.503C372.106 119.446 368.819 116.158 364.762 116.158C360.705 116.158 357.417 119.446 357.417 123.503C357.417 127.56 360.705 130.848 364.762 130.848C368.819 130.848 372.106 127.56 372.106 123.503ZM361.062 123.503C362.983 122.52 363.782 121.721 364.765 119.799C365.752 121.721 366.547 122.52 368.469 123.503C366.547 124.49 365.748 125.285 364.765 127.207C363.782 125.285 362.983 124.486 361.062 123.503Z" fill="#FFD484"/>
<path d="M382.366 124.493C368.686 127.733 368.686 119.269 382.366 122.509C379.127 108.829 387.59 108.829 384.351 122.509C398.031 119.269 398.031 127.733 384.351 124.493C387.59 138.174 379.127 138.174 382.366 124.493Z" fill="#FFD484"/>
<path d="M409.3 123.503C409.3 119.446 406.013 116.158 401.956 116.158C397.899 116.158 394.611 119.446 394.611 123.503C394.611 127.56 397.899 130.848 401.956 130.848C406.013 130.848 409.3 127.56 409.3 123.503ZM398.252 123.503C400.174 122.52 400.973 121.721 401.956 119.799C402.942 121.721 403.738 122.52 405.659 123.503C403.738 124.49 402.939 125.285 401.956 127.207C400.973 125.285 400.174 124.486 398.252 123.503Z" fill="#FFD484"/>
<path d="M419.561 124.493C405.88 127.733 405.88 119.269 419.561 122.509C416.321 108.829 424.785 108.829 421.545 122.509C435.225 119.269 435.225 127.733 421.545 124.493C424.785 138.174 416.321 138.174 419.561 124.493Z" fill="#FFD484"/>
<path d="M446.494 123.503C446.494 119.446 443.207 116.158 439.15 116.158C435.093 116.158 431.805 119.446 431.805 123.503C431.805 127.56 435.093 130.848 439.15 130.848C443.207 130.848 446.494 127.56 446.494 123.503ZM435.446 123.503C437.368 122.52 438.167 121.721 439.15 119.799C440.136 121.721 440.932 122.52 442.853 123.503C440.932 124.49 440.133 125.285 439.15 127.207C438.167 125.285 437.368 124.486 435.446 123.503Z" fill="#FFD484"/>
<path d="M446.494 48.4891C446.494 44.4321 443.207 41.1445 439.15 41.1445C435.093 41.1445 431.805 44.4321 431.805 48.4891C431.805 52.5461 435.093 55.8337 439.15 55.8337C443.207 55.8337 446.494 52.5461 446.494 48.4891ZM435.446 48.4891C437.368 47.5062 438.167 46.7073 439.15 44.7855C440.136 46.7073 440.932 47.5062 442.853 48.4891C440.932 49.4758 440.133 50.271 439.15 52.1927C438.167 50.271 437.368 49.4721 435.446 48.4891Z" fill="#FFD484"/>
<path d="M438.156 30.8438C424.475 34.0835 424.475 25.6197 438.156 28.8594C434.916 15.179 443.38 15.179 440.14 28.8594C453.82 25.6197 453.82 34.0835 440.14 30.8438C443.38 44.5242 434.916 44.5242 438.156 30.8438Z" fill="#FFD484"/>
<path d="M438.156 68.1226C424.475 71.3623 424.475 62.8985 438.156 66.1383C434.916 52.4578 443.38 52.4578 440.14 66.1383C453.82 62.8985 453.82 71.3623 440.14 68.1226C443.38 81.803 434.916 81.803 438.156 68.1226Z" fill="#FFD484"/>
<path d="M326.577 105.607C312.897 108.847 312.897 100.383 326.577 103.623C323.337 89.9427 331.801 89.9427 328.561 103.623C342.242 100.383 342.242 108.847 328.561 105.607C331.801 119.288 323.337 119.288 326.577 105.607Z" fill="#FFD484"/>
<path d="M363.771 105.607C350.091 108.847 350.091 100.383 363.771 103.623C360.531 89.9427 368.995 89.9427 365.755 103.623C379.436 100.383 379.436 108.847 365.755 105.607C368.995 119.288 360.531 119.288 363.771 105.607Z" fill="#FFD484"/>
<path d="M353.511 104.613C353.511 100.556 350.223 97.2688 346.166 97.2688C342.109 97.2688 338.822 100.556 338.822 104.613C338.822 108.67 342.109 111.958 346.166 111.958C350.223 111.958 353.511 108.67 353.511 104.613ZM342.463 104.613C344.384 103.63 345.183 102.832 346.166 100.91C347.153 102.832 347.948 103.63 349.87 104.613C347.948 105.6 347.149 106.395 346.166 108.317C345.183 106.395 344.384 105.596 342.463 104.613Z" fill="#FFD484"/>
<path d="M316.317 104.613C316.317 100.556 313.029 97.2688 308.972 97.2688C304.915 97.2688 301.627 100.556 301.627 104.613C301.627 108.67 304.915 111.958 308.972 111.958C313.029 111.958 316.317 108.67 316.317 104.613ZM305.272 104.613C307.194 103.63 307.993 102.832 308.976 100.91C309.962 102.832 310.758 103.63 312.679 104.613C310.758 105.6 309.959 106.395 308.976 108.317C307.993 106.395 307.194 105.596 305.272 104.613Z" fill="#FFD484"/>
<path d="M390.705 104.613C390.705 100.556 387.417 97.2688 383.36 97.2688C379.303 97.2688 376.016 100.556 376.016 104.613C376.016 108.67 379.303 111.958 383.36 111.958C387.417 111.958 390.705 108.67 390.705 104.613ZM379.657 104.613C381.579 103.63 382.377 102.832 383.36 100.91C384.347 102.832 385.142 103.63 387.064 104.613C385.142 105.6 384.343 106.395 383.36 108.317C382.377 106.395 381.579 105.596 379.657 104.613Z" fill="#FFD484"/>
<path d="M427.895 104.613C427.895 100.556 424.608 97.2688 420.551 97.2688C416.494 97.2688 413.206 100.556 413.206 104.613C413.206 108.67 416.494 111.958 420.551 111.958C424.608 111.958 427.895 108.67 427.895 104.613ZM416.847 104.613C418.769 103.63 419.568 102.832 420.551 100.91C421.538 102.832 422.333 103.63 424.254 104.613C422.333 105.6 421.534 106.395 420.551 108.317C419.568 106.395 418.769 105.596 416.847 104.613Z" fill="#FFD484"/>
<path d="M400.965 105.607C387.285 108.847 387.285 100.383 400.965 103.623C397.726 89.9427 406.189 89.9427 402.95 103.623C416.63 100.383 416.63 108.847 402.95 105.607C406.189 119.288 397.726 119.288 400.965 105.607Z" fill="#FFD484"/>
<path d="M438.156 105.607C424.475 108.847 424.475 100.383 438.156 103.623C434.916 89.9427 443.38 89.9427 440.14 103.623C453.82 100.383 453.82 108.847 440.14 105.607C443.38 119.288 434.916 119.288 438.156 105.607Z" fill="#FFD484"/>
</g>
</g>
</svg>
