<svg width="59" height="121" viewBox="0 0 59 121" fill="none" xmlns="http://www.w3.org/2000/svg">
<path d="M28.6383 37.7141L30.1237 60.8696C30.196 63.2357 26.7848 63.4658 26.5482 61.0996C26.5219 60.725 28.0336 38.0559 28.0336 37.7141C28.0599 37.3526 28.612 37.3329 28.6383 37.7141Z" fill="#FFC6E6"/>
<path d="M22.6646 34.4267L2.71006 46.2641C0.633103 47.4012 -1.1218 44.4632 0.882865 43.1815C1.20492 42.9909 22.0862 34.0389 22.3952 33.8878C22.7304 33.7432 22.9999 34.2296 22.6712 34.4267H22.6646Z" fill="#FFC6E6"/>
<path d="M22.8886 27.6095L3.2824 15.2003C1.32375 13.8661 3.14436 10.9741 5.2016 12.1703C5.51709 12.3675 22.9741 26.9128 23.2501 27.1165C23.5328 27.3466 23.2173 27.8132 22.8952 27.6095H22.8886Z" fill="#FFC6E6"/>
<path d="M29.0593 24.7132L31.2151 1.6103C31.5109 -0.736135 34.9221 -0.42722 34.7841 1.94551C34.7512 2.32015 29.7165 24.47 29.6574 24.8118C29.5785 25.1667 29.0264 25.101 29.0593 24.7198V24.7132Z" fill="#FFC6E6"/>
<path d="M34.4423 28.8939L56.0072 20.3297C58.2353 19.5278 59.5104 22.7024 57.3283 23.662C56.9799 23.8 34.9549 29.3737 34.6263 29.4788C34.2714 29.5708 34.0808 29.045 34.4423 28.9004V28.8939Z" fill="#FFC6E6"/>
<path d="M33.1603 35.5911L50.5844 50.9119C52.3064 52.5354 50.0586 55.1119 48.2182 53.6001C47.9356 53.357 32.9762 36.2615 32.733 36.0117C32.4964 35.7357 32.8711 35.3347 33.1603 35.5845V35.5911Z" fill="#FFC6E6"/>
<path d="M31.5513 37.7799L36.4348 49.1112C36.9869 50.544 34.8639 51.3065 34.3775 49.8473L30.9795 37.9837C30.8743 37.6288 31.4067 37.4316 31.5513 37.7799Z" fill="#FFC6E6"/>
<path d="M24.2422 37.2695L16.8677 47.1679C15.9015 48.3641 14.1795 46.905 15.2048 45.7548L23.7756 36.8817C24.0319 36.6122 24.4657 36.9737 24.2357 37.2761L24.2422 37.2695Z" fill="#FFC6E6"/>
<path d="M21.0338 30.6884L8.7758 29.249C7.25751 29.0124 7.65845 26.7908 9.17016 27.0997L21.139 30.0903C21.5005 30.1757 21.4019 30.7344 21.0272 30.6884H21.0338Z" fill="#FFC6E6"/>
<path d="M25.122 24.6172L20.2385 13.286C19.6864 11.8531 21.8094 11.0907 22.2957 12.5498L25.6938 24.4135C25.799 24.7684 25.2666 24.9656 25.122 24.6172Z" fill="#FFC6E6"/>
<path d="M32.4316 25.1303L39.8061 15.2319C40.7723 14.0357 42.4943 15.4948 41.469 16.645L32.8982 25.5181C32.6419 25.7876 32.2081 25.4261 32.4381 25.1238L32.4316 25.1303Z" fill="#FFC6E6"/>
<path d="M35.6385 31.7058L47.8965 33.1452C49.4148 33.3818 49.0139 35.6034 47.5022 35.2945L35.5334 32.3039C35.1719 32.2185 35.2705 31.6598 35.6451 31.7058H35.6385Z" fill="#FFC6E6"/>
<path d="M11.1825 51.1829C11.3074 50.8214 11.2614 50.4205 11.0642 50.0918C10.6699 49.428 11.314 48.6393 12.0435 48.8825C12.405 49.0074 12.806 48.9613 13.1346 48.7642C13.7984 48.3698 14.5872 49.0139 14.344 49.7435C14.2191 50.105 14.2651 50.5059 14.4623 50.8346C14.8567 51.4984 14.2125 52.2871 13.483 52.0439C13.1215 51.919 12.7205 51.9651 12.3919 52.1622C11.728 52.5566 10.9393 51.9125 11.1825 51.1829Z" fill="#FFC6E6"/>
<path d="M2.45404 26.3393C2.82868 26.267 3.15074 26.0304 3.34135 25.6952C3.71599 25.0248 4.72818 25.1826 4.87935 25.9384C4.95165 26.3131 5.18827 26.6351 5.52348 26.8257C6.19389 27.2004 6.03615 28.2126 5.28029 28.3637C4.90565 28.436 4.58359 28.6726 4.39298 29.0078C4.01834 29.6783 3.00615 29.5205 2.85498 28.7647C2.78268 28.39 2.54606 28.068 2.21085 27.8774C1.54044 27.5027 1.69818 26.4905 2.45404 26.3393Z" fill="#FFC6E6"/>
<path d="M19.6026 6.35153C19.8523 6.64073 20.2204 6.79847 20.6016 6.79847C21.3706 6.78533 21.7387 7.73836 21.1603 8.25103C20.8711 8.50079 20.7134 8.86886 20.7134 9.25008C20.7265 10.0191 19.7735 10.3871 19.2608 9.80875C19.0111 9.51955 18.643 9.36181 18.2618 9.36181C17.4928 9.37496 17.1247 8.42192 17.7031 7.90925C17.9923 7.65949 18.15 7.29142 18.15 6.91021C18.1369 6.14121 19.0899 5.77314 19.6026 6.35153Z" fill="#FFC6E6"/>
<path d="M45.4856 11.2144C45.3607 11.5759 45.4067 11.9769 45.6039 12.3055C45.9982 12.9693 45.3541 13.7581 44.6246 13.5149C44.2631 13.39 43.8621 13.436 43.5335 13.6332C42.8697 14.0275 42.0809 13.3834 42.3241 12.6539C42.449 12.2924 42.403 11.8914 42.2058 11.5628C41.8115 10.899 42.4556 10.1102 43.1851 10.3534C43.5466 10.4783 43.9476 10.4323 44.2762 10.2351C44.94 9.84076 45.7288 10.4849 45.4856 11.2144Z" fill="#FFC6E6"/>
<path d="M54.2207 36.0588C53.8461 36.1311 53.524 36.3677 53.3334 36.7029C52.9588 37.3733 51.9466 37.2156 51.7954 36.4597C51.7231 36.0851 51.4865 35.763 51.1513 35.5724C50.4809 35.1978 50.6386 34.1856 51.3945 34.0344C51.7691 33.9621 52.0912 33.7255 52.2818 33.3903C52.6564 32.7199 53.6686 32.8776 53.8198 33.6335C53.8921 34.0081 54.1287 34.3302 54.4639 34.5208C55.1343 34.8954 54.9766 35.9076 54.2207 36.0588Z" fill="#FFC6E6"/>
<path d="M37.0655 56.047C36.8157 55.7578 36.4477 55.6001 36.0665 55.6001C35.2975 55.6132 34.9294 54.6602 35.5078 54.1475C35.797 53.8978 35.9547 53.5297 35.9547 53.1485C35.9416 52.3795 36.8946 52.0114 37.4073 52.5898C37.657 52.879 38.0251 53.0368 38.4063 53.0368C39.1753 53.0236 39.5434 53.9766 38.965 54.4893C38.6758 54.7391 38.5181 55.1071 38.5181 55.4884C38.5312 56.2574 37.5782 56.6254 37.0655 56.047Z" fill="#FFC6E6"/>
<path d="M30.4975 70.6746L28.3377 120.695L26.1778 70.6746C26.1544 67.7009 30.5132 67.6931 30.4975 70.6746Z" fill="#FFC6E6"/>
</svg>
