<svg width="88" height="88" viewBox="0 0 88 88" fill="none" xmlns="http://www.w3.org/2000/svg">
<path d="M47.8769 52.7144L62.8727 84.1863C64.1345 87.0738 60.0256 89.0555 58.5616 86.2407C58.4241 85.9738 47.246 53.3048 47.1327 53.0217C46.9791 52.5607 47.6585 52.2534 47.885 52.7144H47.8769Z" fill="#FFC6E6"/>
<path d="M40.3793 52.9891L28.7321 85.8441C27.5754 88.7802 23.2805 87.2677 24.2349 84.2507C24.3239 83.9676 39.522 52.9649 39.6433 52.6818C39.8536 52.245 40.5573 52.5038 40.3874 52.9972L40.3793 52.9891Z" fill="#FFC6E6"/>
<path d="M34.8869 47.8781L3.41502 62.874C0.527468 64.1357 -1.45418 60.0268 1.36057 58.5629C1.62749 58.4254 34.2965 47.2472 34.5795 47.134C35.0406 46.9803 35.3479 47.6597 34.8869 47.8862V47.8781Z" fill="#FFC6E6"/>
<path d="M34.6114 40.3796L1.75644 28.7242C-1.17964 27.5676 0.332886 23.2727 3.34985 24.2271C3.63294 24.3161 34.6357 39.5141 34.9188 39.6355C35.3556 39.8458 35.0967 40.5495 34.6033 40.3796H34.6114Z" fill="#FFC6E6"/>
<path d="M39.7236 34.8788L24.7278 3.41502C23.466 0.527469 27.5749 -1.45419 29.0389 1.36057C29.1764 1.62749 40.3545 34.2965 40.4678 34.5795C40.6214 35.0406 39.942 35.3479 39.7155 34.8869L39.7236 34.8788Z" fill="#FFC6E6"/>
<path d="M47.2218 34.6124L58.8691 1.75742C60.0257 -1.17866 64.3206 0.333863 63.3662 3.35083C63.2772 3.63392 48.0792 34.6367 47.9578 34.9198C47.7475 35.3565 47.0438 35.0977 47.2137 34.6043L47.2218 34.6124Z" fill="#FFC6E6"/>
<path d="M52.7222 39.7255L84.1941 24.7296C87.0816 23.4678 89.0633 27.5767 86.2485 29.0407C85.9816 29.1782 53.3127 40.3563 53.0296 40.4696C52.5685 40.6233 52.2612 39.9438 52.7222 39.7174V39.7255Z" fill="#FFC6E6"/>
<path d="M52.9882 47.2218L85.8432 58.8691C88.7793 60.0257 87.2667 64.3206 84.2498 63.3662C83.9667 63.2772 52.9639 48.0792 52.6808 47.9578C52.244 47.7475 52.5029 47.0438 52.9963 47.2137L52.9882 47.2218Z" fill="#FFC6E6"/>
<path d="M57.1961 57.6638L65.0661 64.1992C65.6889 64.7168 65.7698 65.6389 65.2603 66.2617C64.686 66.9735 63.5536 66.9573 62.9874 66.2375L56.6219 58.23C56.3226 57.8579 56.8322 57.3564 57.1961 57.6638Z" fill="#FFC6E6"/>
<path d="M43.4769 63.0729L44.4152 73.2562C44.488 74.065 43.8975 74.7768 43.0887 74.8496C42.1747 74.9467 41.3901 74.1297 41.5033 73.2238L42.6681 63.0648C42.7166 62.5876 43.4365 62.5957 43.4769 63.0729Z" fill="#FFC6E6"/>
<path d="M29.9375 57.1959L23.4021 65.0659C22.8844 65.6887 21.9623 65.7696 21.3395 65.26C20.6278 64.6857 20.6439 63.5534 21.3638 62.9872L29.3713 56.6216C29.7434 56.3224 30.2448 56.8319 29.9375 57.1959Z" fill="#FFC6E6"/>
<path d="M24.526 43.4689L14.3427 44.4071C13.5339 44.4799 12.8221 43.8895 12.7493 43.0806C12.6523 42.1666 13.4692 41.3821 14.3751 41.4953L24.5341 42.66C25.0113 42.7085 25.0032 43.4284 24.526 43.4689Z" fill="#FFC6E6"/>
<path d="M30.406 29.9372L22.536 23.4018C21.9132 22.8842 21.8323 21.9621 22.3419 21.3393C22.9162 20.6275 24.0485 20.6437 24.6147 21.3636L30.9803 29.3711C31.2795 29.7431 30.77 30.2446 30.406 29.9372Z" fill="#FFC6E6"/>
<path d="M44.1311 24.5248L43.1928 14.3415C43.12 13.5327 43.7105 12.8209 44.5193 12.7481C45.4333 12.651 46.2179 13.468 46.1047 14.3739L44.9399 24.5329C44.8914 25.0101 44.1715 25.002 44.1311 24.5248Z" fill="#FFC6E6"/>
<path d="M57.664 30.4058L64.1994 22.5358C64.7171 21.913 65.6392 21.8321 66.262 22.3416C66.9737 22.9159 66.9576 24.0483 66.2377 24.6145L58.2302 30.98C57.8581 31.2793 57.3567 30.7697 57.664 30.4058Z" fill="#FFC6E6"/>
<path d="M63.0751 44.1318L73.2584 43.1936C74.0672 43.1208 74.779 43.7112 74.8518 44.5201C74.9489 45.434 74.1319 46.2186 73.226 46.1054L63.067 44.9407C62.5898 44.8921 62.5979 44.1723 63.0751 44.1318Z" fill="#FFC6E6"/>
</svg>
