<svg width="71" height="71" viewBox="0 0 71 71" fill="none" xmlns="http://www.w3.org/2000/svg">
<path d="M23.2315 22.4165L29.431 29.3586C29.649 29.6008 29.6248 29.964 29.3826 30.182C29.1889 30.3595 28.9063 30.3757 28.6964 30.2465L20.7291 25.4355C19.7928 24.8704 19.4941 23.6515 20.0592 22.7151C20.7211 21.585 22.3759 21.4317 23.2315 22.4165Z" fill="#FFC6E6"/>
<path d="M37.6649 17.8952L36.1069 27.0733C36.0504 27.3881 35.7517 27.6061 35.4369 27.5496C35.1786 27.5092 34.9929 27.2993 34.9607 27.0491L33.7579 17.8225C33.6126 16.7408 34.3795 15.7399 35.4692 15.6027C36.7688 15.4089 37.9151 16.6117 37.681 17.8952H37.6649Z" fill="#FFC6E6"/>
<path d="M50.193 26.3578L42.0481 30.8621C41.7656 31.0154 41.4104 30.9186 41.257 30.636C41.1279 30.41 41.1763 30.1275 41.3458 29.9499L47.8117 23.258C48.5705 22.4669 49.8217 22.4508 50.6127 23.2096C51.5733 24.1056 51.3473 25.7523 50.193 26.3658V26.3578Z" fill="#FFC6E6"/>
<path d="M51.3961 41.4363L42.7992 37.8765C42.5005 37.7554 42.3633 37.4164 42.4843 37.1177C42.5812 36.8755 42.8314 36.7383 43.0736 36.7625L52.3405 37.6424C53.4303 37.7473 54.2294 38.716 54.1245 39.7977C54.0196 41.1054 52.5908 41.961 51.3961 41.4444V41.4363Z" fill="#FFC6E6"/>
<path d="M40.3538 51.7655L37.7787 42.8215C37.6899 42.5147 37.8675 42.1918 38.1743 42.103C38.4245 42.0304 38.6909 42.1353 38.8201 42.3452L43.9136 50.1349C44.511 51.0471 44.2527 52.2821 43.3405 52.8795C42.2588 53.614 40.6928 53.0328 40.3538 51.7655Z" fill="#FFC6E6"/>
<path d="M25.3945 49.5779L30.7787 41.99C30.9643 41.7236 31.3276 41.6671 31.594 41.8528C31.8038 42.0062 31.8846 42.2725 31.8119 42.5066L28.8978 51.3457C28.5588 52.3871 27.4368 52.9521 26.3954 52.605C25.1442 52.2175 24.6276 50.6273 25.4026 49.5779H25.3945Z" fill="#FFC6E6"/>
<path d="M17.7753 36.5176L27.0664 35.9929C27.3893 35.9768 27.6638 36.219 27.6799 36.5419C27.6961 36.8002 27.5346 37.0343 27.3005 37.1231L18.5744 40.352C17.5493 40.7314 16.4111 40.2067 16.0317 39.1815C15.5554 37.9626 16.4757 36.5742 17.7753 36.5176Z" fill="#FFC6E6"/>
<path d="M10.7524 12.2394L17.0891 19.0766C17.307 19.3107 17.2909 19.682 17.0568 19.8999C16.8631 20.0775 16.5805 20.1017 16.3707 19.9806L8.30651 15.3068C7.36206 14.7579 7.03109 13.5471 7.58 12.5946C8.21771 11.4483 9.88059 11.2707 10.7524 12.2394Z" fill="#FFC6E6"/>
<path d="M25.4767 3.11526L27.5513 12.2046C27.6239 12.5194 27.4221 12.8342 27.1154 12.9069C26.857 12.9634 26.6068 12.8423 26.4777 12.6324L21.828 4.55212C21.2791 3.5996 21.6101 2.38876 22.5545 1.83985C23.6847 1.16178 25.2103 1.83985 25.4767 3.11526Z" fill="#FFC6E6"/>
<path d="M42.7834 2.56729L40.0308 11.471C39.9339 11.7777 39.611 11.9553 39.3043 11.8584C39.054 11.7777 38.8926 11.5517 38.8926 11.3015V1.98609C38.9087 0.888268 39.7967 0.000321537 40.8945 0.000321537C42.2103 -0.0238952 43.1951 1.32417 42.7915 2.56729H42.7834Z" fill="#FFC6E6"/>
<path d="M58.04 10.7504L51.2028 17.0871C50.9687 17.3051 50.5974 17.2889 50.3795 17.0549C50.2019 16.8611 50.1777 16.5786 50.2987 16.3687L54.9726 8.30455C55.5215 7.3601 56.7323 7.02914 57.6848 7.57805C58.8311 8.21576 59.0087 9.87864 58.04 10.7504Z" fill="#FFC6E6"/>
<path d="M67.1688 25.4669L58.0794 27.5415C57.7646 27.6141 57.4498 27.4123 57.3771 27.1056C57.3206 26.8473 57.4417 26.597 57.6516 26.4679L65.7319 21.8183C66.6844 21.2694 67.8953 21.6003 68.4442 22.5448C69.1222 23.6749 68.4442 25.2005 67.1688 25.4669Z" fill="#FFC6E6"/>
<path d="M67.7102 42.7736L58.8065 40.021C58.4998 39.9241 58.3222 39.6012 58.4191 39.2945C58.4998 39.0443 58.7258 38.8828 58.9761 38.8828H68.2995C69.3973 38.899 70.2853 39.7869 70.2853 40.8847C70.3095 42.2005 68.9614 43.1853 67.7183 42.7817L67.7102 42.7736Z" fill="#FFC6E6"/>
<path d="M59.5335 58.039L53.1968 51.2018C52.9789 50.9678 52.995 50.5964 53.2291 50.3785C53.4228 50.2009 53.7054 50.1767 53.9153 50.2978L61.9794 54.9716C62.9239 55.5205 63.2548 56.7313 62.7059 57.6839C62.0682 58.8301 60.4053 59.0077 59.5335 58.039Z" fill="#FFC6E6"/>
<path d="M44.8179 67.161L42.7434 58.0716C42.6707 57.7568 42.8725 57.442 43.1793 57.3693C43.4376 57.3128 43.6878 57.4339 43.817 57.6438L48.4666 65.7241C49.0155 66.6766 48.6845 67.8875 47.7401 68.4364C46.61 69.1144 45.0843 68.4364 44.8179 67.161Z" fill="#FFC6E6"/>
<path d="M27.5021 67.7102L30.2547 58.8065C30.3516 58.4998 30.6745 58.3222 30.9812 58.4191C31.2315 58.4998 31.3929 58.7258 31.3929 58.9761V68.2995C31.3768 69.3973 30.4888 70.2853 29.391 70.2853C28.0752 70.3095 27.0904 68.9614 27.494 67.7183L27.5021 67.7102Z" fill="#FFC6E6"/>
<path d="M12.2462 59.5257L19.0834 53.189C19.3175 52.9711 19.6888 52.9872 19.9068 53.2213C20.0844 53.415 20.1086 53.6976 19.9875 53.9074L15.3137 61.9716C14.7647 62.9161 13.5539 63.247 12.6014 62.6981C11.4551 62.0604 11.2775 60.3975 12.2462 59.5257Z" fill="#FFC6E6"/>
<path d="M3.11624 44.8082L12.2056 42.7336C12.5204 42.6609 12.8352 42.8627 12.9079 43.1695C12.9644 43.4278 12.8433 43.678 12.6334 43.8072L4.5531 48.4568C3.60057 49.0057 2.38974 48.6748 1.84083 47.7303C1.16276 46.6002 1.84083 45.0745 3.11624 44.8082Z" fill="#FFC6E6"/>
<path d="M2.57537 27.502L11.479 30.2546C11.7858 30.3515 11.9634 30.6744 11.8665 30.9811C11.7858 31.2313 11.5598 31.3928 11.3095 31.3928H1.9861C0.888273 31.3766 0.000321536 30.4887 0.000321536 29.3909C-0.0238952 28.0751 1.32417 27.0903 2.5673 27.4939L2.57537 27.502Z" fill="#FFC6E6"/>
</svg>
