<svg width="375" height="202" viewBox="0 0 375 202" fill="none" xmlns="http://www.w3.org/2000/svg">
<mask id="path-1-outside-1_37_36290" maskUnits="userSpaceOnUse" x="-23" y="-15" width="421" height="217" fill="black">
<rect fill="white" x="-23" y="-15" width="421" height="217"/>
<path d="M375 85.0703C386.084 92.453 393 102.907 393 114.5C393 136.868 367.256 155 335.5 155C333.256 155 331.042 154.906 328.864 154.729C328.953 155.317 329 155.907 329 156.5C329 168.868 305.648 197 187.5 197C69.3517 197 46 168.868 46 156.5C46 155.907 46.0465 155.317 46.1348 154.729C43.9577 154.906 41.744 155 39.5 155C7.74363 155 -18 136.868 -18 114.5C-18 102.907 -11.0838 92.453 0 85.0703V-10H375V85.0703Z"/>
</mask>
<path d="M375 85.0703H370V87.7475L372.228 89.2317L375 85.0703ZM328.864 154.729L329.268 149.746L322.982 149.237L323.92 155.473L328.864 154.729ZM46.1348 154.729L51.0792 155.473L52.0165 149.237L45.7314 149.746L46.1348 154.729ZM0 85.0703L2.77182 89.2317L5 87.7475V85.0703H0ZM0 -10V-15H-5V-10H0ZM375 -10H380V-15H375V-10ZM375 85.0703L372.228 89.2317C382.366 95.9845 388 105.053 388 114.5H393H398C398 100.761 389.801 88.9215 377.772 80.9089L375 85.0703ZM393 114.5H388C388 123.618 382.76 132.373 373.279 139.05C363.813 145.718 350.471 150 335.5 150V155V160C352.285 160 367.694 155.216 379.038 147.226C390.368 139.245 398 127.749 398 114.5H393ZM335.5 155V150C333.396 150 331.316 149.912 329.268 149.746L328.864 154.729L328.461 159.713C330.767 159.9 333.116 160 335.5 160V155ZM328.864 154.729L323.92 155.473C323.974 155.833 324 156.174 324 156.5H329H334C334 155.639 333.931 154.8 333.809 153.986L328.864 154.729ZM329 156.5H324C324 159.561 320.667 168.432 300.634 176.772C280.901 184.987 246.279 192 187.5 192V197V202C246.87 202 282.998 194.946 304.477 186.004C325.657 177.186 334 165.806 334 156.5H329ZM187.5 197V192C128.721 192 94.0994 184.987 74.3661 176.772C54.3333 168.432 51 159.561 51 156.5H46H41C41 165.806 49.3426 177.186 70.5226 186.004C92.0023 194.946 128.13 202 187.5 202V197ZM46 156.5H51C51 156.169 51.0259 155.828 51.0792 155.473L46.1348 154.729L41.1903 153.986C41.0671 154.806 41 155.644 41 156.5H46ZM46.1348 154.729L45.7314 149.746C43.683 149.912 41.6039 150 39.5 150V155V160C41.8841 160 44.2325 159.9 46.5381 159.713L46.1348 154.729ZM39.5 155V150C24.5285 150 11.1872 145.718 1.72059 139.05C-7.75981 132.373 -13 123.618 -13 114.5H-18H-23C-23 127.749 -15.3684 139.245 -4.03787 147.226C7.30643 155.216 22.7151 160 39.5 160V155ZM-18 114.5H-13C-13 105.053 -7.36632 95.9845 2.77182 89.2317L0 85.0703L-2.77182 80.9089C-14.8012 88.9215 -23 100.761 -23 114.5H-18ZM0 85.0703H5V-10H0H-5V85.0703H0ZM0 -10V-5H375V-10V-15H0V-10ZM375 -10H370V85.0703H375H380V-10H375Z" fill="url(#paint0_linear_37_36290)" mask="url(#path-1-outside-1_37_36290)"/>
<defs>
<linearGradient id="paint0_linear_37_36290" x1="2.5" y1="111.5" x2="206" y2="197" gradientUnits="userSpaceOnUse">
<stop stop-color="#D2AF85"/>
<stop offset="1" stop-color="#F5D2AA"/>
</linearGradient>
</defs>
</svg>
